# Blender v3.1.2 OBJ File: 'bed.blend'
# www.blender.org
mtllib bed.mtl
o Plane
v -0.923149 -0.197991 1.164104
v 0.582233 -0.197991 1.164104
v -0.923149 -0.197991 -1.385983
v 0.582233 -0.197991 -1.385983
v -0.923149 -0.197991 0.613762
v 0.582233 -0.197991 0.613762
v 0.582233 -0.197991 -0.826726
v -0.923149 -0.197991 -0.826726
v -0.542117 -0.197991 1.164104
v -0.542117 -0.197991 -1.385983
v -0.542117 -0.197991 0.613762
v -0.542117 -0.197991 -0.826726
v 0.219747 -0.197991 1.164104
v 0.219747 -0.197991 -1.385983
v 0.219747 -0.197991 0.613762
v 0.219747 -0.197991 -0.826726
v -0.923149 -0.197991 0.248847
v 0.582233 -0.197991 0.248847
v -0.542117 -0.197991 0.248847
v 0.219747 -0.197991 0.248847
v 0.582233 -0.197991 -0.445890
v -0.542117 -0.197991 -0.445890
v 0.219747 -0.197991 -0.445890
v -0.923149 -0.197991 -0.445890
v -0.461148 0.160410 0.167877
v 0.138777 0.160410 0.167877
v -0.461148 0.160410 -0.364920
v 0.138777 0.160410 -0.364920
v 0.219747 0.160410 0.248847
v -0.542117 0.160410 0.248847
v -0.542117 0.160410 -0.445890
v 0.219747 0.160410 -0.445890
v -0.461148 0.399965 0.167877
v 0.138777 0.399965 0.167877
v -0.259727 0.363641 -0.171115
v 0.138777 0.399965 -0.364920
v -0.838676 0.631003 2.190524
v 0.649159 0.631003 2.190524
v -0.838676 0.631003 -2.150087
v 0.649159 0.631003 -2.150087
v -0.505746 0.232164 -0.721663
v -0.772187 0.881874 2.194058
v -0.830411 0.881874 2.135835
v 0.582671 0.881874 2.194058
v 0.640894 0.881874 2.135835
v -0.772187 0.881874 1.074428
v -0.830411 0.881874 1.132651
v 0.582671 0.881874 1.074428
v 0.640894 0.881874 1.132651
v -0.772187 0.881874 -1.042364
v -0.830411 0.881874 -1.100588
v 0.582671 0.881874 -1.042364
v 0.640894 0.881874 -1.100588
v -0.772187 0.881874 -2.161995
v -0.830411 0.881874 -2.103772
v 0.582671 0.881874 -2.161995
v 0.640894 0.881874 -2.103772
v -0.772187 0.881874 1.060895
v -0.830411 0.881874 1.002671
v 0.582671 0.881874 1.060895
v 0.640894 0.881874 1.002671
v -0.772187 0.881874 -1.017936
v -0.830411 0.881874 -0.959712
v 0.582671 0.881874 -1.017936
v 0.640894 0.881874 -0.959712
v -0.923149 -0.427991 1.164104
v 0.582233 -0.427992 1.164104
v -0.923149 -0.427991 -1.385983
v 0.582233 -0.427991 -1.385983
v -0.923149 -0.427991 0.613762
v 0.582233 -0.427992 0.613762
v 0.582233 -0.427991 -0.826726
v -0.923149 -0.427991 -0.826726
v -0.542117 -0.427991 1.164104
v -0.542117 -0.427991 -1.385983
v -0.542117 -0.427991 0.613762
v -0.542117 -0.427991 -0.826726
v 0.219747 -0.427992 1.164104
v 0.219747 -0.427991 -1.385983
v 0.219747 -0.427992 0.613762
v 0.219747 -0.427991 -0.826726
v -0.923149 -0.427991 0.248847
v 0.582233 -0.427991 0.248847
v -0.404117 -0.611992 0.110847
v 0.081747 -0.611992 0.110847
v 0.582233 -0.427991 -0.445890
v -0.404117 -0.611992 -0.307890
v 0.081747 -0.611992 -0.307890
v -0.923149 -0.427991 -0.445890
v -0.330082 -0.376653 0.046974
v -0.040112 -0.376257 -0.011011
v -0.404779 -0.155122 -0.306935
v 0.015741 -0.362497 -0.234089
v -0.010253 -0.069590 0.018847
v -0.312117 -0.069590 0.018847
v -0.312117 -0.069590 -0.215890
v -0.010253 -0.069590 -0.215890
v -0.264054 0.136154 -0.012906
v -0.096145 0.154205 -0.065603
v -0.151856 0.133633 -0.054377
v -0.041527 0.137876 -0.169293
v -0.838676 0.401003 2.190524
v 0.649159 0.401003 2.190524
v -0.838676 0.401003 -2.150087
v 0.649159 0.401003 -2.150087
v -0.505746 0.232164 -0.721663
v -0.772187 0.651874 2.194058
v -0.830411 0.651874 2.135835
v 0.582671 0.651874 2.194058
v 0.640894 0.651874 2.135835
v -0.772187 0.651874 1.074428
v -0.830411 0.651874 1.132651
v 0.582671 0.651874 1.074428
v 0.640894 0.651874 1.132651
v -0.772187 0.651874 -1.042364
v -0.830411 0.651874 -1.100588
v 0.582671 0.651874 -1.042364
v 0.640894 0.651874 -1.100588
v -0.772187 0.651874 -2.161995
v -0.830411 0.651874 -2.103772
v 0.582671 0.651874 -2.161995
v 0.640894 0.651874 -2.103772
v -0.772187 0.651874 1.060895
v -0.830411 0.651874 1.002671
v 0.582671 0.651874 1.060895
v 0.640894 0.651874 1.002671
v -0.772187 0.651874 -1.017936
v -0.830411 0.651874 -0.959712
v 0.582671 0.651874 -1.017936
v 0.640894 0.651874 -0.959712
vt 0.759206 0.631349
vt 1.000000 0.631349
vt 1.000000 0.780691
vt 0.759206 0.780691
vt 0.000000 0.631349
vt 0.253113 0.631349
vt 0.253113 0.780691
vt 0.000000 0.780691
vt 0.000000 0.215813
vt 0.253113 0.215813
vt 0.253113 0.358912
vt 0.000000 0.358912
vt 0.759206 0.215813
vt 1.000000 0.215813
vt 1.000000 0.358912
vt 0.759206 0.358912
vt 0.705419 0.390664
vt 0.306900 0.390664
vt 0.253113 0.358912
vt 0.759206 0.358912
vt 0.306900 0.599597
vt 0.253113 0.631349
vt 0.705419 0.599597
vt 0.759206 0.631349
vt 0.000000 0.000000
vt 1.000000 0.000000
vt 1.000000 1.000000
vt 0.000000 1.000000
vt 0.759206 0.631349
vt 0.759206 0.780691
vt 1.000000 0.780691
vt 1.000000 0.631349
vt 0.000000 0.631349
vt 0.000000 0.780691
vt 0.253113 0.780691
vt 0.253113 0.631349
vt 0.000000 0.215813
vt 0.000000 0.358912
vt 0.253113 0.358912
vt 0.253113 0.215813
vt 0.759206 0.215813
vt 0.759206 0.358912
vt 1.000000 0.358912
vt 1.000000 0.215813
vt 0.705419 0.390664
vt 0.759206 0.358912
vt 0.253113 0.358912
vt 0.306900 0.390664
vt 0.253113 0.631349
vt 0.306900 0.599597
vt 0.759206 0.631349
vt 0.705419 0.599597
vt 0.000000 0.000000
vt 0.000000 1.000000
vt 1.000000 1.000000
vt 1.000000 0.000000
vt 0.039653 0.999913
vt 0.000087 0.960347
vt 0.000087 0.039653
vt 0.039653 0.000087
vt 0.721367 0.000087
vt 0.760932 0.039653
vt 0.760932 0.960347
vt 0.721366 0.999913
vt 0.707721 0.971912
vt 0.679718 0.999915
vt 0.028088 0.999916
vt 0.000084 0.971912
vt 0.000084 0.028088
vt 0.028087 0.000085
vt 0.679717 0.000084
vt 0.707721 0.028088
vt 0.721366 0.000087
vt 0.760932 0.039653
vt 0.760932 0.960347
vt 0.721366 0.999913
vt 0.039653 0.999913
vt 0.000087 0.960347
vt 0.000087 0.039653
vt 0.039653 0.000087
vt 0.039653 0.999913
vt 0.721366 0.999913
vt 0.760932 0.960347
vt 0.760932 0.039653
vt 0.721367 0.000087
vt 0.039653 0.000087
vt 0.000087 0.039653
vt 0.000087 0.960347
vt 0.707721 0.971912
vt 0.707721 0.028088
vt 0.679717 0.000084
vt 0.028087 0.000085
vt 0.000084 0.028088
vt 0.000084 0.971912
vt 0.028088 0.999916
vt 0.679718 0.999915
vt 0.721366 0.000087
vt 0.039653 0.000087
vt 0.000087 0.039653
vt 0.000087 0.960347
vt 0.039653 0.999913
vt 0.721366 0.999913
vt 0.760932 0.960347
vt 0.760932 0.039653
vt 1.000000 1.000000
vt 0.759206 1.000000
vt 0.759206 0.000000
vt 1.000000 0.000000
vt 0.000000 0.000000
vt 0.253113 0.000000
vt 0.253113 1.000000
vt 0.000000 1.000000
vt 0.705419 0.599597
vt 0.705419 0.390664
vt 0.306900 0.390664
vt 0.306900 0.599597
vt 0.759206 1.000000
vt 1.000000 1.000000
vt 0.759206 0.000000
vt 1.000000 0.000000
vt 0.000000 0.000000
vt 0.253113 0.000000
vt 0.000000 1.000000
vt 0.253113 1.000000
vt 0.705419 0.390664
vt 0.705419 0.599597
vt 0.306900 0.390664
vt 0.306900 0.599597
vn 0.0000 1.0000 0.0000
vn 0.1793 -0.9689 -0.1707
vn -0.1719 -0.9700 -0.1720
vn -0.1708 -0.9690 0.1783
vn 0.1781 -0.9680 0.1769
vn 0.0975 -0.0104 0.9952
vn -0.9496 0.2341 0.2086
vn 0.1670 0.2462 -0.9547
vn 0.0000 -1.0000 0.0000
vn -1.0000 0.0000 0.0000
vn 1.0000 0.0000 0.0000
vn 0.0000 0.0000 1.0000
vn 0.0000 0.0000 -1.0000
vn -0.7071 0.0000 0.7071
vn 0.7071 0.0000 0.7071
vn 0.7071 0.0000 -0.7071
vn -0.7071 0.0000 -0.7071
vn -0.0464 0.9976 -0.0523
vn -0.1851 0.4635 -0.8666
vn -0.8495 0.4811 -0.2163
vn 0.0000 -0.9425 -0.3342
vn -0.0000 -0.9391 0.3436
vn 0.9859 -0.1672 -0.0000
vn -0.3341 -0.9425 0.0000
vn 0.3451 -0.9386 0.0000
vn -0.9428 -0.1005 -0.3179
vn 0.0000 -0.1672 -0.9859
vn 0.0000 -0.1672 0.9859
vn -0.9859 -0.1672 -0.0000
vn 0.9926 -0.0161 0.1206
vn 0.3852 -0.7485 0.5398
vn -0.2297 -0.1040 -0.9677
vn -0.0635 -0.3588 0.9313
vn 0.9325 -0.3462 -0.1033
g Plane_Plane_Material.001
usemtl Material.001
s off
f 23/1/1 21/2/1 7/3/1 16/4/1
f 24/5/1 22/6/1 12/7/1 8/8/1
f 5/9/1 11/10/1 19/11/1 17/12/1
f 15/13/1 6/14/1 18/15/1 20/16/1
f 26/17/1 25/18/1 30/19/1 29/20/1
f 25/18/1 27/21/1 31/22/1 30/19/1
f 27/21/1 28/23/1 32/24/1 31/22/1
f 37/25/1 38/26/1 40/27/1 39/28/1
f 88/29/2 81/30/2 72/31/2 86/32/2
f 89/33/3 73/34/3 77/35/3 87/36/3
f 70/37/4 82/38/4 84/39/4 76/40/4
f 80/41/5 85/42/5 83/43/5 71/44/5
f 91/45/6 94/46/6 95/47/6 90/48/6
f 90/48/7 95/47/7 96/49/7 92/50/7
f 92/50/8 96/49/8 97/51/8 93/52/8
f 102/53/9 104/54/9 105/55/9 103/56/9
f 5/9/10 17/12/10 82/38/10 70/37/10
f 7/3/11 21/2/11 86/32/11 72/31/11
f 18/15/11 6/14/11 71/44/11 83/43/11
f 24/5/10 8/8/10 73/34/10 89/33/10
f 37/25/10 39/28/10 104/54/10 102/53/10
f 38/26/12 37/25/12 102/53/12 103/56/12
f 40/27/11 38/26/11 103/56/11 105/55/11
f 39/28/13 40/27/13 105/55/13 104/54/13
g Plane_Plane_Material.002
usemtl Material.002
f 51/57/1 50/58/1 52/59/1 53/60/1 57/61/1 56/62/1 54/63/1 55/64/1
f 59/65/1 58/66/1 60/67/1 61/68/1 65/69/1 64/70/1 62/71/1 63/72/1
f 43/73/1 42/74/1 44/75/1 45/76/1 49/77/1 48/78/1 46/79/1 47/80/1
f 116/81/9 120/82/9 119/83/9 121/84/9 122/85/9 118/86/9 117/87/9 115/88/9
f 124/89/9 128/90/9 127/91/9 129/92/9 130/93/9 126/94/9 125/95/9 123/96/9
f 108/97/9 112/98/9 111/99/9 113/100/9 114/101/9 110/102/9 109/103/9 107/104/9
f 43/73/10 47/80/10 112/98/10 108/97/10
f 42/74/14 43/73/14 108/97/14 107/104/14
f 44/75/12 42/74/12 107/104/12 109/103/12
f 45/76/15 44/75/15 109/103/15 110/102/15
f 49/77/11 45/76/11 110/102/11 114/101/11
f 48/78/16 49/77/16 114/101/16 113/100/16
f 46/79/13 48/78/13 113/100/13 111/99/13
f 47/80/17 46/79/17 111/99/17 112/98/17
f 51/57/10 55/64/10 120/82/10 116/81/10
f 50/58/14 51/57/14 116/81/14 115/88/14
f 52/59/12 50/58/12 115/88/12 117/87/12
f 53/60/15 52/59/15 117/87/15 118/86/15
f 57/61/11 53/60/11 118/86/11 122/85/11
f 56/62/16 57/61/16 122/85/16 121/84/16
f 54/63/13 56/62/13 121/84/13 119/83/13
f 55/64/17 54/63/17 119/83/17 120/82/17
f 59/65/10 63/72/10 128/90/10 124/89/10
f 58/66/14 59/65/14 124/89/14 123/96/14
f 60/67/12 58/66/12 123/96/12 125/95/12
f 61/68/15 60/67/15 125/95/15 126/94/15
f 65/69/11 61/68/11 126/94/11 130/93/11
f 64/70/16 65/69/16 130/93/16 129/92/16
f 62/71/13 64/70/13 129/92/13 127/91/13
f 63/72/17 62/71/17 127/91/17 128/90/17
g Plane_Plane_Material.004
usemtl Material.004
f 16/4/1 7/3/1 4/105/1 14/106/1
f 13/107/1 2/108/1 6/14/1 15/13/1
f 1/109/1 9/110/1 11/10/1 5/9/1
f 8/8/1 12/7/1 10/111/1 3/112/1
f 22/6/1 23/1/1 16/4/1 12/7/1
f 11/10/1 15/13/1 20/16/1 19/11/1
f 22/6/10 19/11/10 30/19/10 31/22/10
f 17/12/1 19/11/1 22/6/1 24/5/1
f 20/16/1 18/15/1 21/2/1 23/1/1
f 26/17/11 28/23/11 36/113/11 34/114/11
f 19/11/12 20/16/12 29/20/12 30/19/12
f 23/1/13 22/6/13 31/22/13 32/24/13
f 20/16/11 23/1/11 32/24/11 29/20/11
f 28/23/1 26/17/1 29/20/1 32/24/1
f 33/115/18 34/114/18 36/113/18 35/116/18
f 25/18/12 26/17/12 34/114/12 33/115/12
f 28/23/19 27/21/19 35/116/19 36/113/19
f 27/21/20 25/18/20 33/115/20 35/116/20
f 81/30/9 79/117/9 69/118/9 72/31/9
f 78/119/9 80/41/9 71/44/9 67/120/9
f 66/121/9 70/37/9 76/40/9 74/122/9
f 73/34/9 68/123/9 75/124/9 77/35/9
f 87/36/21 77/35/21 81/30/21 88/29/21
f 76/40/22 84/39/22 85/42/22 80/41/22
f 87/36/23 96/49/23 95/47/23 84/39/23
f 82/38/24 89/33/24 87/36/24 84/39/24
f 85/42/25 88/29/25 86/32/25 83/43/25
f 91/45/26 99/125/26 101/126/26 93/52/26
f 84/39/27 95/47/27 94/46/27 85/42/27
f 88/29/28 97/51/28 96/49/28 87/36/28
f 85/42/29 94/46/29 97/51/29 88/29/29
f 93/52/30 97/51/30 94/46/30 91/45/30
f 98/127/31 100/128/31 101/126/31 99/125/31
f 90/48/32 98/127/32 99/125/32 91/45/32
f 93/52/33 101/126/33 100/128/33 92/50/33
f 92/50/34 100/128/34 98/127/34 90/48/34
f 1/109/10 5/9/10 70/37/10 66/121/10
f 2/108/12 13/107/12 78/119/12 67/120/12
f 4/105/11 7/3/11 72/31/11 69/118/11
f 3/112/13 10/111/13 75/124/13 68/123/13
f 6/14/11 2/108/11 67/120/11 71/44/11
f 8/8/10 3/112/10 68/123/10 73/34/10
f 9/110/12 1/109/12 66/121/12 74/122/12
f 15/13/12 11/10/12 76/40/12 80/41/12
f 12/7/13 16/4/13 81/30/13 77/35/13
f 11/10/11 9/110/11 74/122/11 76/40/11
f 10/111/11 12/7/11 77/35/11 75/124/11
f 14/106/13 4/105/13 69/118/13 79/117/13
f 13/107/10 15/13/10 80/41/10 78/119/10
f 16/4/10 14/106/10 79/117/10 81/30/10
f 17/12/10 24/5/10 89/33/10 82/38/10
f 21/2/11 18/15/11 83/43/11 86/32/11
