# Blender v3.1.2 OBJ File: 'vetro.blend'
# www.blender.org
mtllib vetro.mtl
o Cube
v -4.903161 3.382275 0.908156
v -4.854177 3.405821 -4.515599
v -4.903161 5.811127 0.960768
v -4.854177 5.834672 -4.462988
v -4.973157 3.382292 0.907355
v -4.924173 3.405838 -4.516400
v -4.973157 5.811143 0.959967
v -4.924173 5.834690 -4.463789
vt 0.000000 0.000000
vt 1.000000 0.000000
vt 1.000000 1.000000
vt 0.000000 1.000000
vt 0.000000 0.000000
vt 0.000000 1.000000
vt 1.000000 1.000000
vt 1.000000 0.000000
vn 1.0000 -0.0002 0.0090
vn -1.0000 0.0002 -0.0090
vn -0.0114 -0.0217 0.9997
vn -0.0002 -1.0000 -0.0043
vn 0.0114 0.0217 -0.9997
vn 0.0002 1.0000 0.0043
g Cube_Cube_foto
usemtl foto
s off
f 1/1/1 2/2/1 4/3/1 3/4/1
f 5/5/2 7/6/2 8/7/2 6/8/2
f 1/1/3 3/4/3 7/6/3 5/5/3
f 2/2/4 1/1/4 5/5/4 6/8/4
f 4/3/5 2/2/5 6/8/5 8/7/5
f 3/4/6 4/3/6 8/7/6 7/6/6
o Cube.001
v -4.839125 3.382275 0.908156
v -4.790140 3.405821 -4.515599
v -4.839125 5.811127 0.960768
v -4.790140 5.834672 -4.462988
v -4.909121 3.382292 0.907355
v -4.860137 3.405838 -4.516400
v -4.909121 5.811143 0.959967
v -4.860137 5.834690 -4.463789
vt 0.000000 0.000000
vt 1.000000 0.000000
vt 1.000000 1.000000
vt 0.000000 1.000000
vt 0.000000 0.000000
vt 0.000000 1.000000
vt 1.000000 1.000000
vt 1.000000 0.000000
vn 1.0000 -0.0002 0.0090
vn -1.0000 0.0002 -0.0090
vn -0.0114 -0.0217 0.9997
vn -0.0002 -1.0000 -0.0043
vn 0.0114 0.0217 -0.9997
vn 0.0002 1.0000 0.0043
g Cube.001_Cube.001_vetro.001
usemtl vetro.001
s off
f 9/9/7 10/10/7 12/11/7 11/12/7
f 13/13/8 15/14/8 16/15/8 14/16/8
f 9/9/9 11/12/9 15/14/9 13/13/9
f 10/10/10 9/9/10 13/13/10 14/16/10
f 12/11/11 10/10/11 14/16/11 16/15/11
f 11/12/12 12/11/12 16/15/12 15/14/12
