# Blender v3.1.2 OBJ File: 'room.blend'
# www.blender.org
mtllib room.mtl
o room_Plane
v -5.214415 -0.000001 8.377805
v 5.036813 -0.000001 8.377805
v -5.214415 -0.000001 -8.377805
v 5.036813 -0.000001 -8.377805
v -5.474076 8.661166 -8.842472
v 5.296474 8.661166 -8.842472
v 5.296474 8.649539 8.842472
v 5.296474 8.649539 -8.842472
v -5.474076 8.653010 8.842472
v 5.296474 8.653010 8.842472
v -5.474076 2.313546 8.842472
v -5.474076 2.313546 -8.842472
v -5.214415 -0.000001 -7.427837
v 5.036813 -0.000001 -7.427837
v 5.296474 8.649539 -7.427837
v -5.474076 2.313546 -7.427837
v -5.214415 -0.000001 -2.194666
v -5.474076 2.313546 -2.194666
v 5.036813 -0.000001 -2.194666
v 5.296474 8.649539 -2.194666
v -5.474076 8.635483 8.842472
v -5.474076 8.635483 -2.194666
v -5.474076 8.675829 -8.842472
v -5.474076 8.675829 -7.427837
v -5.474076 5.432845 8.842472
v -5.474076 5.432845 -2.194666
v -5.474076 8.635483 -7.435881
v -5.474076 5.432845 -7.435881
v -5.671727 -0.246932 9.196171
v 5.494125 -0.246932 9.196171
v -5.671727 -0.246932 -9.196171
v 5.494125 -0.246932 -9.196171
v -5.474076 8.661166 -9.196171
v 5.296474 8.661166 -9.196171
v 5.494125 8.649539 8.842472
v 5.494125 8.649539 -8.842472
v -5.474076 8.653010 9.196171
v 5.296474 8.653010 9.196171
v -5.671727 2.313546 8.842472
v -5.671727 2.313546 -8.842472
v -5.671727 -0.246932 -7.427837
v 5.494125 -0.246932 -7.427837
v 5.494125 8.649539 -7.427837
v -5.671727 2.313546 -7.427837
v -5.671727 -0.246932 -2.194666
v -5.671727 2.313546 -2.194666
v 5.494125 -0.246932 -2.194666
v 5.494125 8.649539 -2.194666
v -5.671727 8.635483 8.842472
v -5.671727 8.635483 -2.194666
v -5.671727 8.675829 -8.842472
v -5.671727 8.675829 -7.427837
v -5.671727 5.432845 8.842472
v -5.671727 5.432845 -2.194666
v -5.671727 8.635483 -7.435881
v -5.671727 5.432845 -7.435881
v -5.474076 -0.000001 -2.194666
v -5.474076 -0.000001 8.842472
v 5.296474 -0.000001 8.842472
v 5.296474 -0.000001 -7.427837
v 5.296474 -0.000001 -8.842472
v -5.474076 -0.000001 -8.842472
v -5.474076 -0.000001 -7.427837
v 5.296474 -0.000001 -2.194666
v -5.474076 0.453964 -2.194666
v -5.474076 0.453964 8.842472
v 5.296474 0.453964 8.842472
v 5.296474 0.453964 -7.427837
v 5.296474 0.453964 -8.842472
v -5.474076 0.453964 -8.842472
v -5.474076 0.453964 -7.427837
v 5.296474 0.453964 -2.194666
v -5.214415 0.453964 -2.194666
v -5.214415 0.453964 8.377805
v 5.036813 0.453964 8.377805
v 5.036813 0.453964 -7.427837
v 5.036813 0.453964 -8.377805
v -5.214415 0.453964 -8.377805
v -5.214415 0.453964 -7.427837
v 5.036813 0.453964 -2.194666
vt 0.000000 0.920009
vt 0.000000 1.000000
vt 1.000000 1.000000
vt 1.000000 0.920009
vt 0.000000 0.624098
vt 1.000000 0.624098
vt 0.000000 0.000000
vt 1.000000 0.000000
vt 0.003342 0.557531
vt 0.317171 0.662526
vt 0.259811 0.726739
vt 0.000096 0.562814
vt 0.351272 0.755880
vt 0.353161 0.759296
vt 0.000000 0.000000
vt 0.000000 0.000000
vt 0.000000 0.000000
vt 0.000000 0.000000
vt 0.000000 1.000000
vt 0.000000 1.000000
vt 0.000000 1.000000
vt 0.000000 1.000000
vt 0.000000 0.000000
vt 0.000000 0.000000
vt 0.000000 0.624098
vt 0.000000 0.624098
vt 0.000000 0.624098
vt 0.000000 0.624098
vt 0.000084 0.919939
vt 0.000084 0.999916
vt 0.000084 0.999916
vt 0.000084 0.919939
vt 0.833104 0.478213
vt 0.760933 0.520194
vt 0.760933 0.520194
vt 0.833104 0.478213
vt 0.474765 0.176367
vt 0.474765 0.176367
vt 0.317171 0.662526
vt 0.626423 0.591346
vt 0.626423 0.591346
vt 0.322006 0.759815
vt 0.999913 0.759815
vt 0.999913 0.759815
vt 0.322006 0.759815
vt 0.000084 0.624077
vt 0.000084 0.624077
vt 0.000084 0.000084
vt 0.000084 0.000084
vt 0.000080 0.643644
vt 0.999920 0.643644
vt 0.999920 0.643644
vt 0.000080 0.643644
vt 0.999905 0.051870
vt 0.000096 0.051870
vt 0.000096 0.000096
vt 0.999905 0.000097
vt 0.999905 0.337084
vt 0.000096 0.337084
vt 0.999905 0.913296
vt 0.000096 0.913297
vt 0.000080 0.000080
vt 0.638559 0.017778
vt 0.638559 0.982222
vt 0.000080 0.999920
vt 0.000083 0.380695
vt 0.692817 0.380695
vt 0.692817 0.980689
vt 0.000083 0.999917
vt 0.637974 0.999920
vt 0.000080 0.982221
vt 0.000080 0.017778
vt 0.637974 0.000080
vt 0.052344 0.596282
vt 0.119730 0.704647
vt 0.077932 0.730639
vt 0.000095 0.628773
vt 0.205789 0.482802
vt 0.344732 0.602421
vt 0.000083 0.000083
vt 0.692817 0.019311
vt 0.692817 0.096212
vt 0.000083 0.096212
vt 0.427521 0.000095
vt 0.576056 0.086476
vt 0.736690 0.145355
vt 0.902543 0.180155
vt 0.832423 0.637688
vt 0.586903 0.672058
vt 0.287171 0.973913
vt 0.245373 0.999905
vt 0.902543 0.836747
vt 0.740373 0.909963
vt 0.999986 0.018363
vt 0.000014 0.018364
vt 0.000014 0.000014
vt 0.999986 0.000014
vt 0.289499 0.869761
vt 0.707480 0.697484
vt 0.712391 0.709400
vt 0.284350 0.891485
vt 0.439829 0.048109
vt 0.021848 0.220387
vt 0.002888 0.208601
vt 0.434918 0.036193
vt 0.020014 0.000014
vt 0.020014 0.080003
vt 0.000014 0.080003
vt 0.000014 0.000014
vt 0.052318 0.670822
vt 0.039458 0.671692
vt 0.695279 0.627328
vt 0.664809 0.176894
vt 0.682009 0.162662
vt 0.708139 0.626458
vt 0.999986 0.018363
vt 0.000014 0.018364
vt 0.000014 0.000014
vt 0.999986 0.000014
vt 0.227875 0.062595
vt 0.231137 0.050125
vt 0.212325 0.776875
vt 0.202411 0.785112
vt 0.020013 0.375904
vt 0.000014 0.375904
vt 0.020014 0.999986
vt 0.000014 0.999986
vt 0.021742 0.000015
vt 0.021742 0.678021
vt 0.000015 0.678021
vt 0.999950 0.250053
vt 0.000050 0.250053
vt 0.000050 0.000050
vt 0.999950 0.000050
vt 0.021742 0.999985
vt 0.000015 0.999985
vt 0.000046 0.000046
vt 0.999954 0.000046
vt 0.999954 0.124290
vt 0.000046 0.124290
vt 0.000089 0.999911
vt 0.000089 0.328502
vt 0.459666 0.328502
vt 0.459666 0.999911
vt 0.057867 0.024131
vt 0.057867 0.975869
vt 0.024131 0.975869
vt 0.024131 0.024131
vt 0.042129 0.042129
vt 0.042129 0.999968
vt 0.000032 0.999968
vt 0.000032 0.000032
vt 0.033760 0.975869
vt 0.033760 0.024131
vt 0.057867 0.000024
vt 0.057867 0.999976
vt 0.328502 0.459666
vt 0.999911 0.459666
vt 0.999911 0.788079
vt 0.000089 0.788079
vt 0.000024 0.999976
vt 0.000024 0.000024
vt 0.788079 0.000089
vt 0.788079 0.999911
vt 0.999954 0.213074
vt 0.000046 0.213074
vt 0.088831 0.000046
vt 0.088831 0.999954
vt 0.000046 0.999954
vt 0.000047 0.000046
vt 0.058943 0.999968
vt 0.058943 0.042129
vt 0.101040 0.000032
vt 0.101040 0.999968
vt 0.213074 0.000046
vt 0.213074 0.999954
vt 0.000033 0.999968
vt 0.000032 0.042130
vt 0.101040 0.042128
vt 0.101040 0.999968
vt 0.000024 0.975869
vt 0.000024 0.024131
vt 0.328501 0.000089
vt 0.999911 0.000089
vt 0.000080 0.000080
vt 0.999920 0.000080
vt 0.890778 0.999906
vt 0.000095 0.999906
vt 0.000094 0.000095
vt 0.890778 0.000094
vt 0.999920 0.000080
vt 0.999920 0.643038
vt 0.000080 0.643038
vt 0.498492 0.787162
vt 0.498492 0.999929
vt 0.000071 0.999929
vt 0.000071 0.787162
vt 0.498492 0.000071
vt 0.000071 0.000071
vt 0.999966 0.000034
vt 0.999966 0.114207
vt 0.000034 0.114207
vt 0.000034 0.000034
vt 0.999945 0.300270
vt 0.000055 0.300270
vt 0.999945 0.000055
vt 0.422401 0.999935
vt 0.000065 0.999935
vt 0.000065 0.000065
vt 0.422401 0.000065
vt 0.415643 0.000064
vt 0.415643 0.999936
vt 0.000064 0.999935
vt 0.000065 0.000065
vt 0.155256 0.999961
vt 0.000040 0.000039
vt 0.155257 0.000039
vt 0.404829 0.000064
vt 0.404829 0.999936
vt 0.000064 0.999936
vt 0.000064 0.000064
vt 0.999906 0.000094
vt 0.999906 0.875183
vt 0.000094 0.875183
vt 0.000094 0.000094
vt 0.361639 0.609836
vt 0.447537 0.829165
vt 0.437377 0.837239
vt 0.353217 0.623847
vt 0.000000 0.920009
vt 0.000000 0.920009
vt 0.000000 0.920009
vt 0.000000 0.920009
vt 0.209138 0.527873
vt 0.209235 0.544164
vt 0.054934 0.612923
vt 0.058080 0.624582
vn 0.0000 -1.0000 -0.0000
vn -0.9640 0.0109 -0.2656
vn 0.6464 0.0552 0.7610
vn 0.0000 0.0000 1.0000
vn 0.0000 0.0000 -1.0000
vn 1.0000 0.0000 0.0000
vn -1.0000 0.0000 0.0000
vn 0.0000 1.0000 0.0000
vn -0.9640 0.0108 0.2656
vn 0.9640 0.0108 0.2656
vn -0.6615 0.0151 -0.7498
vn -0.6615 0.0151 0.7498
vn 0.9640 0.0109 -0.2656
vn 0.6464 0.0552 -0.7610
g room_Plane_Material.005
usemtl Material.005
s off
f 41/1/1 31/2/1 32/3/1 42/4/1
f 45/5/1 41/1/1 42/4/1 47/6/1
f 29/7/1 45/5/1 47/6/1 30/8/1
f 9/9/2 58/10/2 29/11/2 37/12/2
f 58/10/3 11/13/3 39/14/3 29/11/3
f 11/15/4 25/16/4 53/17/4 39/18/4
f 23/19/5 12/20/5 40/21/5 51/22/5
f 25/16/4 21/23/4 49/24/4 53/17/4
f 27/25/5 28/26/5 56/27/5 55/28/5
f 60/29/6 61/30/6 69/31/6 68/32/6
f 62/33/7 63/34/7 71/35/7 70/36/7
f 58/10/4 59/37/4 67/38/4 66/39/4
f 63/34/7 57/40/7 65/41/7 71/35/7
f 57/42/7 58/43/7 66/44/7 65/45/7
f 64/46/6 60/29/6 68/32/6 72/47/6
f 59/48/6 64/46/6 72/47/6 67/49/6
f 61/50/5 62/51/5 70/52/5 69/53/5
g room_Plane_pavimento
usemtl pavimento
f 13/54/8 14/55/8 4/56/8 3/57/8
f 17/58/8 19/59/8 14/55/8 13/54/8
f 1/60/8 2/61/8 19/59/8 17/58/8
g room_Plane_pareti
usemtl pareti
f 31/62/5 33/63/5 34/64/5 32/65/5
f 47/66/6 48/67/6 35/68/6 30/69/6
f 30/70/4 38/71/4 37/72/4 29/73/4
f 41/74/7 44/75/7 40/76/7 31/77/7
f 45/78/7 46/79/7 44/75/7 41/74/7
f 32/80/6 36/81/6 43/82/6 42/83/6
f 29/84/7 39/85/7 46/79/7 45/78/7
f 42/83/6 43/82/6 48/67/6 47/66/6
f 53/86/7 49/87/7 50/88/7 54/89/7
f 44/75/7 52/90/7 51/91/7 40/76/7
f 39/85/7 53/86/7 54/89/7 46/79/7
f 50/88/7 55/92/7 56/93/7 54/89/7
f 5/94/8 6/95/8 34/96/8 33/97/8
f 62/98/9 5/99/9 33/100/9 31/101/9
f 6/102/10 61/103/10 32/104/10 34/105/10
f 8/106/8 15/107/8 43/108/8 36/109/8
f 61/103/11 8/110/11 36/111/11 32/104/11
f 7/112/12 59/113/12 30/114/12 35/115/12
f 10/116/8 9/117/8 37/118/8 38/119/8
f 59/113/13 10/120/13 38/121/13 30/114/13
f 12/122/14 62/98/14 31/101/14 40/123/14
f 15/107/8 20/124/8 48/125/8 43/108/8
f 20/124/8 7/126/8 35/127/8 48/125/8
f 21/128/8 22/129/8 50/130/8 49/24/8
f 24/131/8 23/132/8 51/133/8 52/134/8
f 22/129/8 27/135/8 55/136/8 50/130/8
g room_Plane_battiscopa
usemtl battiscopa
f 14/137/7 19/138/7 80/139/7 76/140/7
f 13/141/6 3/142/6 78/143/6 79/144/6
f 3/145/4 4/146/4 77/147/4 78/148/4
f 74/149/8 73/150/8 65/151/8 66/152/8
f 75/153/8 74/154/8 66/155/8 67/156/8
f 77/157/8 76/158/8 68/159/8 69/160/8
f 78/148/8 77/147/8 69/161/8 70/162/8
f 79/144/8 78/143/8 70/163/8 71/164/8
f 76/140/8 80/139/8 72/165/8 68/166/8
f 73/167/8 79/168/8 71/169/8 65/170/8
f 80/171/8 75/172/8 67/173/8 72/174/8
f 17/175/6 13/176/6 79/168/6 73/167/6
f 19/177/7 2/178/7 75/172/7 80/171/7
f 1/179/6 17/180/6 73/150/6 74/149/6
f 2/181/5 1/182/5 74/154/5 75/153/5
f 4/183/7 14/184/7 76/158/7 77/157/7
g room_Plane_Material.016
usemtl Material.016
f 62/51/4 61/50/4 6/185/4 5/186/4
f 64/187/7 59/188/7 7/189/7 20/190/7
f 59/48/5 58/191/5 9/192/5 10/193/5
f 63/194/6 62/195/6 12/196/6 16/197/6
f 57/198/6 63/194/6 16/197/6 18/199/6
f 61/200/7 60/201/7 15/202/7 8/203/7
f 58/204/6 57/205/6 18/199/6 11/206/6
f 60/207/7 64/208/7 20/209/7 15/210/7
f 25/211/6 26/212/6 22/213/6 21/214/6
f 16/215/6 12/20/6 23/216/6 24/217/6
f 11/218/6 18/219/6 26/220/6 25/221/6
f 22/222/6 26/223/6 28/224/6 27/225/6
f 18/226/8 16/227/8 44/228/8 46/229/8
f 16/230/4 24/231/4 52/232/4 44/233/4
f 26/234/5 18/226/5 46/229/5 54/235/5
f 28/236/1 26/234/1 54/235/1 56/237/1
o tetto_Plane.003
v -5.583470 8.781884 8.930866
v 5.402102 8.781884 8.930866
v -5.583470 8.781884 -8.930866
v 5.402102 8.781884 -8.930866
v -5.583470 8.576090 8.930866
v 5.402102 8.576090 8.930866
v -5.583470 8.576090 -8.930866
v 5.402102 8.576090 -8.930866
vt 0.000000 0.000000
vt 1.000000 0.000000
vt 1.000000 1.000000
vt 0.000000 1.000000
vt 0.000000 0.000000
vt 0.000000 1.000000
vt 1.000000 1.000000
vt 1.000000 0.000000
vn 0.0000 1.0000 0.0000
vn 0.0000 -1.0000 0.0000
vn -1.0000 0.0000 0.0000
vn 0.0000 0.0000 1.0000
vn 1.0000 0.0000 0.0000
vn 0.0000 0.0000 -1.0000
g tetto_Plane.003_Material.001
usemtl Material.001
s off
f 81/238/15 82/239/15 84/240/15 83/241/15
f 85/242/16 87/243/16 88/244/16 86/245/16
f 81/238/17 83/241/17 87/243/17 85/242/17
f 82/239/18 81/238/18 85/242/18 86/245/18
f 84/240/19 82/239/19 86/245/19 88/244/19
f 83/241/20 84/240/20 88/244/20 87/243/20
o foto_Plane.001
v -5.632732 5.463758 -2.189375
v -5.654117 2.346869 -2.189375
v -5.632732 5.463758 -7.495552
v -5.654117 2.346869 -7.495552
v -5.674072 5.464042 -2.189375
v -5.695457 2.347153 -2.189375
v -5.674072 5.464042 -7.495552
v -5.695457 2.347153 -7.495552
vt 0.999906 0.000094
vt 0.999906 0.888225
vt 0.000094 0.888225
vt 0.000094 0.000094
vt 0.999906 0.000094
vt 0.999906 0.888225
vt 0.000094 0.888225
vt 0.000094 0.000094
vt 0.000000 0.000000
vt 0.000000 1.000000
vt 0.000000 1.000000
vt 0.000000 0.000000
vt 1.000000 0.000000
vt 1.000000 0.000000
vt 1.000000 1.000000
vt 1.000000 1.000000
vn 1.0000 -0.0069 0.0000
vn -1.0000 0.0069 0.0000
vn 0.0069 1.0000 0.0000
vn 0.0000 0.0000 1.0000
vn -0.0069 -1.0000 0.0000
vn 0.0000 0.0000 -1.0000
g foto_Plane.001_foto
usemtl foto
s off
f 89/246/21 90/247/21 92/248/21 91/249/21
f 93/250/22 95/251/22 96/252/22 94/253/22
f 89/254/23 91/255/23 95/256/23 93/257/23
f 90/258/24 89/254/24 93/257/24 94/259/24
f 92/260/25 90/258/25 94/259/25 96/261/25
f 91/255/26 92/260/26 96/261/26 95/256/26
o vetro_Plane.004
v -5.485737 5.363363 -2.171460
v -5.507123 2.246474 -2.171460
v -5.485737 5.363363 -7.379264
v -5.507123 2.246474 -7.379264
v -5.527078 5.363647 -2.171460
v -5.548462 2.246758 -2.171460
v -5.527078 5.363647 -7.379264
v -5.548462 2.246758 -7.379264
vt 0.000000 0.000000
vt 0.000000 1.000000
vt 1.000000 1.000000
vt 1.000000 0.000000
vt 0.000000 0.000000
vt 0.000000 1.000000
vt 1.000000 0.000000
vt 1.000000 1.000000
vt 0.999906 0.000094
vt 0.999906 0.888225
vt 0.000094 0.888225
vt 0.000094 0.000094
vn -1.0000 0.0069 0.0000
vn 0.0069 1.0000 0.0000
vn 0.0000 0.0000 1.0000
vn -0.0069 -1.0000 0.0000
vn 0.0000 0.0000 -1.0000
vn 1.0000 -0.0069 0.0000
g vetro_Plane.004_Material
usemtl Material
s off
f 101/262/27 103/263/27 104/264/27 102/265/27
f 97/266/28 99/267/28 103/263/28 101/262/28
f 98/268/29 97/266/29 101/262/29 102/265/29
f 100/269/30 98/268/30 102/265/30 104/264/30
f 99/267/31 100/269/31 104/264/31 103/263/31
g vetro_Plane.004_vetro
usemtl vetro
f 97/270/32 98/271/32 100/272/32 99/273/32
o anta_dx_Plane.005
v -5.202315 6.967054 3.800435
v -5.198029 -0.226329 3.800435
v -5.202315 6.967054 0.726622
v -5.198029 -0.226329 0.726622
v -5.202242 6.844222 0.779109
v -5.202242 6.844222 3.747948
v -5.198102 -0.103498 3.747948
v -5.198102 -0.103498 0.779109
v -5.472960 6.966893 3.800435
v -5.468673 -0.226490 3.800435
v -5.472960 6.966893 0.726622
v -5.468673 -0.226490 0.726622
v -5.472886 6.844061 0.779109
v -5.472886 6.844061 3.747948
v -5.468746 -0.103659 3.747948
v -5.468746 -0.103659 0.779109
vt 0.017076 0.017076
vt 0.982924 0.017076
vt 0.982924 0.982924
vt 0.017076 0.982924
vt 0.000000 1.000000
vt 0.000000 0.000000
vt 1.000000 0.000000
vt 1.000000 1.000000
vt 0.017076 0.017076
vt 0.017076 0.982924
vt 0.982924 0.982924
vt 0.982924 0.017076
vt 0.000000 0.000000
vt 0.000000 1.000000
vt 1.000000 0.000000
vt 1.000000 1.000000
vn 1.0000 0.0006 0.0000
vn -1.0000 -0.0006 0.0000
vn -0.0006 1.0000 0.0000
vn 0.0000 0.0000 1.0000
vn 0.0006 -1.0000 0.0000
vn 0.0000 0.0000 -1.0000
g anta_dx_Plane.005_Material.003
usemtl Material.003
s off
f 110/274/33 111/275/33 112/276/33 109/277/33
f 110/274/33 109/277/33 107/278/33 105/279/33
f 111/275/33 110/274/33 105/279/33 106/280/33
f 112/276/33 111/275/33 106/280/33 108/281/33
f 109/277/33 112/276/33 108/281/33 107/278/33
f 118/282/34 117/283/34 120/284/34 119/285/34
f 118/282/34 113/286/34 115/287/34 117/283/34
f 119/285/34 114/288/34 113/286/34 118/282/34
f 120/284/34 116/289/34 114/288/34 119/285/34
f 117/283/34 115/287/34 116/289/34 120/284/34
f 105/279/35 107/278/35 115/287/35 113/286/35
f 106/280/36 105/279/36 113/286/36 114/288/36
f 108/281/37 106/280/37 114/288/37 116/289/37
f 107/278/38 108/281/38 116/289/38 115/287/38
o Plane.002_Plane.006
v -5.202315 6.967054 3.971301
v -5.198029 -0.226330 3.971301
v -5.202315 6.967054 3.784046
v -5.198029 -0.226330 3.784046
v -5.472959 6.966893 3.971301
v -5.468673 -0.226491 3.971301
v -5.472959 6.966893 3.784046
v -5.468673 -0.226491 3.784046
vt 0.000000 0.000000
vt 1.000000 0.000000
vt 1.000000 1.000000
vt 0.000000 1.000000
vt 0.000000 0.000000
vt 0.000000 1.000000
vt 1.000000 1.000000
vt 1.000000 0.000000
vn 1.0000 0.0006 0.0000
vn -1.0000 -0.0006 0.0000
vn -0.0006 1.0000 0.0000
vn 0.0000 0.0000 1.0000
vn 0.0006 -1.0000 0.0000
vn 0.0000 0.0000 -1.0000
g Plane.002_Plane.006_Material.002
usemtl Material.002
s off
f 121/290/39 122/291/39 124/292/39 123/293/39
f 125/294/40 127/295/40 128/296/40 126/297/40
f 121/290/41 123/293/41 127/295/41 125/294/41
f 122/291/42 121/290/42 125/294/42 126/297/42
f 124/292/43 122/291/43 126/297/43 128/296/43
f 123/293/44 124/292/44 128/296/44 127/295/44
o finestra_dx_Plane.010
v -5.177772 6.160281 3.163516
v -5.176077 3.316391 3.163516
v -5.177772 6.160281 1.352679
v -5.176077 3.316391 1.352679
v -5.177670 5.989203 1.461612
v -5.177670 5.989203 3.054583
v -5.176179 3.487469 3.054583
v -5.176179 3.487469 1.461612
v -5.328130 6.160192 3.163516
v -5.326435 3.316302 3.163516
v -5.328130 6.160192 1.352679
v -5.326435 3.316302 1.352679
v -5.328028 5.989114 1.461612
v -5.328028 5.989114 3.054583
v -5.326537 3.487379 3.054583
v -5.326537 3.487379 1.461612
vt 0.060156 0.060156
vt 0.939844 0.060156
vt 0.939844 0.939844
vt 0.060156 0.939844
vt 0.060156 0.060156
vt 0.060156 0.939844
vt 0.939844 0.939844
vt 0.939844 0.060156
vt 0.000000 1.000000
vt 0.000000 0.000000
vt 1.000000 0.000000
vt 1.000000 1.000000
vt 0.000000 0.000000
vt 0.000000 1.000000
vt 1.000000 0.000000
vt 1.000000 1.000000
vn 1.0000 0.0006 0.0000
vn -1.0000 -0.0006 0.0000
vn -0.0006 1.0000 0.0000
vn 0.0000 0.0000 1.0000
vn 0.0006 -1.0000 0.0000
vn 0.0000 0.0000 -1.0000
g finestra_dx_Plane.010_Material.012
usemtl Material.012
s off
f 134/298/45 135/299/45 136/300/45 133/301/45
f 142/302/46 141/303/46 144/304/46 143/305/46
g finestra_dx_Plane.010_Material.011
usemtl Material.011
f 134/298/45 133/301/45 131/306/45 129/307/45
f 135/299/45 134/298/45 129/307/45 130/308/45
f 136/300/45 135/299/45 130/308/45 132/309/45
f 133/301/45 136/300/45 132/309/45 131/306/45
f 142/302/46 137/310/46 139/311/46 141/303/46
f 143/305/46 138/312/46 137/310/46 142/302/46
f 144/304/46 140/313/46 138/312/46 143/305/46
f 141/303/46 139/311/46 140/313/46 144/304/46
f 129/307/47 131/306/47 139/311/47 137/310/47
f 130/308/48 129/307/48 137/310/48 138/312/48
f 132/309/49 130/308/49 138/312/49 140/313/49
f 131/306/50 132/309/50 140/313/50 139/311/50
o finestra_sx_Plane.011
v -5.177772 6.160281 6.412486
v -5.176077 3.316391 6.412486
v -5.177772 6.160281 4.601650
v -5.176077 3.316391 4.601650
v -5.177670 5.989203 4.710583
v -5.177670 5.989203 6.303553
v -5.176179 3.487469 6.303553
v -5.176179 3.487469 4.710583
v -5.328130 6.160192 6.412486
v -5.326435 3.316302 6.412486
v -5.328130 6.160192 4.601650
v -5.326435 3.316302 4.601650
v -5.328028 5.989114 4.710583
v -5.328028 5.989114 6.303553
v -5.326537 3.487379 6.303553
v -5.326537 3.487379 4.710583
vt 0.060156 0.060156
vt 0.939844 0.060156
vt 0.939844 0.939844
vt 0.060156 0.939844
vt 0.060156 0.060156
vt 0.060156 0.939844
vt 0.939844 0.939844
vt 0.939844 0.060156
vt 0.000000 1.000000
vt 0.000000 0.000000
vt 1.000000 0.000000
vt 1.000000 1.000000
vt 0.000000 0.000000
vt 0.000000 1.000000
vt 1.000000 0.000000
vt 1.000000 1.000000
vn 1.0000 0.0006 0.0000
vn -1.0000 -0.0006 0.0000
vn -0.0006 1.0000 0.0000
vn 0.0000 0.0000 1.0000
vn 0.0006 -1.0000 0.0000
vn 0.0000 0.0000 -1.0000
g finestra_sx_Plane.011_Material.013
usemtl Material.013
s off
f 150/314/51 151/315/51 152/316/51 149/317/51
f 158/318/52 157/319/52 160/320/52 159/321/52
g finestra_sx_Plane.011_Material.014
usemtl Material.014
f 150/314/51 149/317/51 147/322/51 145/323/51
f 151/315/51 150/314/51 145/323/51 146/324/51
f 152/316/51 151/315/51 146/324/51 148/325/51
f 149/317/51 152/316/51 148/325/51 147/322/51
f 158/318/52 153/326/52 155/327/52 157/319/52
f 159/321/52 154/328/52 153/326/52 158/318/52
f 160/320/52 156/329/52 154/328/52 159/321/52
f 157/319/52 155/327/52 156/329/52 160/320/52
f 145/323/53 147/322/53 155/327/53 153/326/53
f 146/324/54 145/323/54 153/326/54 154/328/54
f 148/325/55 146/324/55 154/328/55 156/329/55
f 147/322/56 148/325/56 156/329/56 155/327/56
o anta_sx_Plane.012
v -5.202315 6.967054 7.049406
v -5.198029 -0.226329 7.049406
v -5.202315 6.967054 3.975593
v -5.198029 -0.226329 3.975593
v -5.202232 6.827668 4.035154
v -5.202232 6.827668 6.989845
v -5.198112 -0.086943 6.989845
v -5.198112 -0.086943 4.035154
v -5.472959 6.966893 7.049406
v -5.468673 -0.226490 7.049406
v -5.472959 6.966893 3.975593
v -5.468673 -0.226490 3.975593
v -5.472876 6.827507 4.035154
v -5.472876 6.827507 6.989845
v -5.468756 -0.087104 6.989845
v -5.468756 -0.087104 4.035154
vt 0.019377 0.019377
vt 0.980623 0.019377
vt 0.980623 0.980623
vt 0.019377 0.980623
vt 0.000000 1.000000
vt 0.000000 0.000000
vt 1.000000 0.000000
vt 1.000000 1.000000
vt 0.019377 0.019377
vt 0.019377 0.980623
vt 0.980623 0.980623
vt 0.980623 0.019377
vt 0.000000 0.000000
vt 0.000000 1.000000
vt 1.000000 0.000000
vt 1.000000 1.000000
vn 1.0000 0.0006 0.0000
vn -1.0000 -0.0006 0.0000
vn -0.0006 1.0000 0.0000
vn 0.0000 0.0000 1.0000
vn 0.0006 -1.0000 0.0000
vn 0.0000 0.0000 -1.0000
g anta_sx_Plane.012_Material.015
usemtl Material.015
s off
f 166/330/57 167/331/57 168/332/57 165/333/57
f 166/330/57 165/333/57 163/334/57 161/335/57
f 167/331/57 166/330/57 161/335/57 162/336/57
f 168/332/57 167/331/57 162/336/57 164/337/57
f 165/333/57 168/332/57 164/337/57 163/334/57
f 174/338/58 173/339/58 176/340/58 175/341/58
f 174/338/58 169/342/58 171/343/58 173/339/58
f 175/341/58 170/344/58 169/342/58 174/338/58
f 176/340/58 172/345/58 170/344/58 175/341/58
f 173/339/58 171/343/58 172/345/58 176/340/58
f 161/335/59 163/334/59 171/343/59 169/342/59
f 162/336/60 161/335/60 169/342/60 170/344/60
f 164/337/61 162/336/61 170/344/61 172/345/61
f 163/334/62 164/337/62 172/345/62 171/343/62
