# Blender v3.1.2 OBJ File: 'room.blend'
# www.blender.org
mtllib room.mtl
o room_Plane
v -5.214415 -0.000001 8.377805
v 5.036813 -0.000001 8.377805
v -5.214415 -0.000001 -8.377805
v 5.036813 -0.000001 -8.377805
v -5.474076 8.661166 -8.842472
v 5.296474 8.661166 -8.842472
v 5.296474 8.649539 8.842472
v 5.296474 8.649539 -8.842472
v -5.474076 8.653010 8.842472
v 5.296474 8.653010 8.842472
v -5.474076 2.313546 8.842472
v -5.474076 2.313546 -8.842472
v -5.214415 -0.000001 -7.427837
v 5.036813 -0.000001 -7.427837
v 5.296474 8.649539 -7.427837
v -5.474076 2.313546 -7.427837
v -5.214415 -0.000001 -2.194666
v -5.474076 2.313546 -2.194666
v 5.036813 -0.000001 -2.194666
v 5.296474 8.649539 -2.194666
v -5.474076 8.635483 8.842472
v -5.474076 8.635483 -2.194666
v -5.474076 8.675829 -8.842472
v -5.474076 8.675829 -7.427837
v -5.474076 5.432845 8.842472
v -5.474076 5.432845 -2.194666
v -5.474076 8.635483 -7.435881
v -5.474076 5.432845 -7.435881
v -5.671727 -0.246932 9.196171
v 5.494125 -0.246932 9.196171
v -5.671727 -0.246932 -9.196171
v 5.494125 -0.246932 -9.196171
v -5.474076 8.661166 -9.196171
v 5.296474 8.661166 -9.196171
v 5.494125 8.649539 8.842472
v 5.494125 8.649539 -8.842472
v -5.474076 8.653010 9.196171
v 5.296474 8.653010 9.196171
v -5.671727 2.313546 8.842472
v -5.671727 2.313546 -8.842472
v -5.671727 -0.246932 -7.427837
v 5.494125 -0.246932 -7.427837
v 5.494125 8.649539 -7.427837
v -5.671727 2.313546 -7.427837
v -5.671727 -0.246932 -2.194666
v -5.671727 2.313546 -2.194666
v 5.494125 -0.246932 -2.194666
v 5.494125 8.649539 -2.194666
v -5.671727 8.635483 8.842472
v -5.671727 8.635483 -2.194666
v -5.671727 8.675829 -8.842472
v -5.671727 8.675829 -7.427837
v -5.671727 5.432845 8.842472
v -5.671727 5.432845 -2.194666
v -5.671727 8.635483 -7.435881
v -5.671727 5.432845 -7.435881
v -5.474076 -0.000001 -2.194666
v -5.474076 -0.000001 8.842472
v 5.296474 -0.000001 8.842472
v 5.296474 -0.000001 -7.427837
v 5.296474 -0.000001 -8.842472
v -5.474076 -0.000001 -8.842472
v -5.474076 -0.000001 -7.427837
v 5.296474 -0.000001 -2.194666
v -5.474076 0.453964 -2.194666
v -5.474076 0.453964 8.842472
v 5.296474 0.453964 8.842472
v 5.296474 0.453964 -7.427837
v 5.296474 0.453964 -8.842472
v -5.474076 0.453964 -8.842472
v -5.474076 0.453964 -7.427837
v 5.296474 0.453964 -2.194666
v -5.214415 0.453964 -2.194666
v -5.214415 0.453964 8.377805
v 5.036813 0.453964 8.377805
v 5.036813 0.453964 -7.427837
v 5.036813 0.453964 -8.377805
v -5.214415 0.453964 -8.377805
v -5.214415 0.453964 -7.427837
v 5.036813 0.453964 -2.194666
vt 0.000000 0.920009
vt 0.000000 1.000000
vt 1.000000 1.000000
vt 1.000000 0.920009
vt 0.000000 0.624098
vt 1.000000 0.624098
vt 0.000000 0.000000
vt 1.000000 0.000000
vt 0.003342 0.557531
vt 0.317171 0.662526
vt 0.259811 0.726739
vt 0.000096 0.562814
vt 0.351272 0.755880
vt 0.353161 0.759296
vt 0.000000 0.000000
vt 0.000000 0.000000
vt 0.000000 0.000000
vt 0.000000 0.000000
vt 0.000000 0.920009
vt 0.000000 1.000000
vt 0.000000 1.000000
vt 0.000000 0.920009
vt 0.000000 0.920009
vt 0.000000 0.920009
vt 0.000000 1.000000
vt 0.000000 1.000000
vt 0.000000 0.000000
vt 0.000000 0.000000
vt 0.000000 0.624098
vt 0.000000 0.624098
vt 0.000000 0.624098
vt 0.000000 0.624098
vt 0.000084 0.919939
vt 0.000084 0.999916
vt 0.000084 0.999916
vt 0.000084 0.919939
vt 0.833104 0.478213
vt 0.760933 0.520194
vt 0.760933 0.520194
vt 0.833104 0.478213
vt 0.474765 0.176367
vt 0.474765 0.176367
vt 0.317171 0.662526
vt 0.626423 0.591346
vt 0.626423 0.591346
vt 0.322006 0.759815
vt 0.999913 0.759815
vt 0.999913 0.759815
vt 0.322006 0.759815
vt 0.000084 0.624077
vt 0.000084 0.624077
vt 0.000084 0.000084
vt 0.000084 0.000084
vt 0.000080 0.643644
vt 0.999920 0.643644
vt 0.999920 0.643644
vt 0.000080 0.643644
vt 0.999905 0.051870
vt 0.000096 0.051870
vt 0.000096 0.000096
vt 0.999905 0.000097
vt 0.999905 0.337084
vt 0.000096 0.337084
vt 0.999905 0.913296
vt 0.000096 0.913297
vt 0.289499 0.869761
vt 0.021848 0.220387
vt 0.439829 0.048109
vt 0.707480 0.697484
vt 0.263539 0.204038
vt 0.664809 0.176894
vt 0.695279 0.627328
vt 0.294009 0.654473
vt 0.487068 0.856353
vt 0.050134 0.742055
vt 0.227875 0.062595
vt 0.329150 0.836817
vt 0.212325 0.776875
vt 0.251976 0.743931
vt 0.500650 0.714356
vt 0.437822 0.556232
vt 0.073279 0.216908
vt 0.103749 0.667343
vt 0.052318 0.670822
vt 0.999905 0.663193
vt 0.984544 0.513292
vt 0.980365 0.349038
vt 0.457042 0.313347
vt 0.559399 0.112147
vt 0.999906 0.190571
vt 0.000094 0.521438
vt 0.039746 0.488493
vt 0.306750 0.117103
vt 0.415575 0.000094
vt 0.000080 0.000080
vt 0.638559 0.017778
vt 0.638559 0.982222
vt 0.000080 0.999920
vt 0.000083 0.380695
vt 0.692817 0.380695
vt 0.692817 0.980689
vt 0.000083 0.999917
vt 0.637974 0.999920
vt 0.000080 0.982221
vt 0.000080 0.017778
vt 0.637974 0.000080
vt 0.052344 0.596282
vt 0.119730 0.704647
vt 0.077932 0.730639
vt 0.000095 0.628773
vt 0.205789 0.482802
vt 0.344732 0.602421
vt 0.000083 0.000083
vt 0.692817 0.019311
vt 0.692817 0.096212
vt 0.000083 0.096212
vt 0.427521 0.000095
vt 0.576056 0.086476
vt 0.736690 0.145355
vt 0.902543 0.180155
vt 0.832423 0.637688
vt 0.586903 0.672058
vt 0.287171 0.973913
vt 0.245373 0.999905
vt 0.902543 0.836747
vt 0.740373 0.909963
vt 0.999986 0.018363
vt 0.000014 0.018364
vt 0.000014 0.000014
vt 0.999986 0.000014
vt 0.712391 0.709400
vt 0.284350 0.891485
vt 0.002888 0.208601
vt 0.434918 0.036193
vt 0.020014 0.000014
vt 0.020014 0.080003
vt 0.000014 0.080003
vt 0.000014 0.000014
vt 0.039458 0.671692
vt 0.682009 0.162662
vt 0.708139 0.626458
vt 0.999986 0.018363
vt 0.000014 0.018364
vt 0.000014 0.000014
vt 0.999986 0.000014
vt 0.231137 0.050125
vt 0.202411 0.785112
vt 0.020013 0.375904
vt 0.000014 0.375904
vt 0.345968 0.619724
vt 0.125113 0.716669
vt 0.020014 0.999986
vt 0.000014 0.999986
vt 0.021742 0.000015
vt 0.021742 0.678021
vt 0.000015 0.678021
vt 0.574679 0.688504
vt 0.021742 0.999985
vt 0.000015 0.999985
vt 0.724745 0.920090
vt 0.000046 0.000046
vt 0.999954 0.000046
vt 0.999954 0.124290
vt 0.000046 0.124290
vt 0.000089 0.999911
vt 0.000089 0.328502
vt 0.459666 0.328502
vt 0.459666 0.999911
vt 0.057867 0.024131
vt 0.057867 0.975869
vt 0.024131 0.975869
vt 0.024131 0.024131
vt 0.042129 0.042129
vt 0.042129 0.999968
vt 0.000032 0.999968
vt 0.000032 0.000032
vt 0.033760 0.975869
vt 0.033760 0.024131
vt 0.057867 0.000024
vt 0.057867 0.999976
vt 0.328502 0.459666
vt 0.999911 0.459666
vt 0.999911 0.788079
vt 0.000089 0.788079
vt 0.000024 0.999976
vt 0.000024 0.000024
vt 0.788079 0.000089
vt 0.788079 0.999911
vt 0.999954 0.213074
vt 0.000046 0.213074
vt 0.088831 0.000046
vt 0.088831 0.999954
vt 0.000046 0.999954
vt 0.000047 0.000046
vt 0.058943 0.999968
vt 0.058943 0.042129
vt 0.101040 0.000032
vt 0.101040 0.999968
vt 0.213074 0.000046
vt 0.213074 0.999954
vt 0.000033 0.999968
vt 0.000032 0.042130
vt 0.101040 0.042128
vt 0.101040 0.999968
vt 0.000024 0.975869
vt 0.000024 0.024131
vt 0.328501 0.000089
vt 0.999911 0.000089
vn 0.0000 -1.0000 -0.0000
vn -0.9640 0.0109 -0.2656
vn 0.6464 0.0552 0.7610
vn 0.0000 0.0000 1.0000
vn 0.0000 1.0000 0.0000
vn 0.0000 0.0000 -1.0000
vn 1.0000 0.0000 0.0000
vn -1.0000 0.0000 0.0000
vn -0.9640 0.0108 0.2656
vn 0.9640 0.0108 0.2656
vn -0.6615 0.0151 -0.7498
vn -0.6615 0.0151 0.7498
vn 0.9640 0.0109 -0.2656
vn 0.6464 0.0552 -0.7610
g room_Plane_Material.005
usemtl Material.005
s off
f 41/1/1 31/2/1 32/3/1 42/4/1
f 45/5/1 41/1/1 42/4/1 47/6/1
f 29/7/1 45/5/1 47/6/1 30/8/1
f 9/9/2 58/10/2 29/11/2 37/12/2
f 58/10/3 11/13/3 39/14/3 29/11/3
f 11/15/4 25/16/4 53/17/4 39/18/4
f 24/19/5 23/20/5 51/21/5 52/22/5
f 16/23/4 24/19/4 52/22/4 44/24/4
f 23/20/6 12/25/6 40/26/6 51/21/6
f 25/16/4 21/27/4 49/28/4 53/17/4
f 27/29/6 28/30/6 56/31/6 55/32/6
f 60/33/7 61/34/7 69/35/7 68/36/7
f 62/37/8 63/38/8 71/39/8 70/40/8
f 58/10/4 59/41/4 67/42/4 66/43/4
f 63/38/8 57/44/8 65/45/8 71/39/8
f 57/46/8 58/47/8 66/48/8 65/49/8
f 64/50/7 60/33/7 68/36/7 72/51/7
f 59/52/7 64/50/7 72/51/7 67/53/7
f 61/54/6 62/55/6 70/56/6 69/57/6
g room_Plane_pavimento
usemtl pavimento
f 13/58/5 14/59/5 4/60/5 3/61/5
f 17/62/5 19/63/5 14/59/5 13/58/5
f 1/64/5 2/65/5 19/63/5 17/62/5
g room_Plane_pareti
usemtl pareti
f 62/66/4 61/67/4 6/68/4 5/69/4
f 64/70/8 59/71/8 7/72/8 20/73/8
f 59/71/6 58/74/6 9/75/6 10/76/6
f 63/77/7 62/66/7 12/78/7 16/79/7
f 57/80/7 63/77/7 16/79/7 18/81/7
f 61/67/8 60/82/8 15/83/8 8/84/8
f 58/85/7 57/80/7 18/81/7 11/86/7
f 60/82/8 64/70/8 20/73/8 15/83/8
f 25/87/7 26/88/7 22/89/7 21/90/7
f 16/79/7 12/78/7 23/91/7 24/92/7
f 11/86/7 18/81/7 26/88/7 25/87/7
f 22/89/7 26/88/7 28/93/7 27/94/7
f 31/95/6 33/96/6 34/97/6 32/98/6
f 47/99/7 48/100/7 35/101/7 30/102/7
f 30/103/4 38/104/4 37/105/4 29/106/4
f 41/107/8 44/108/8 40/109/8 31/110/8
f 45/111/8 46/112/8 44/108/8 41/107/8
f 32/113/7 36/114/7 43/115/7 42/116/7
f 29/117/8 39/118/8 46/112/8 45/111/8
f 42/116/7 43/115/7 48/100/7 47/99/7
f 53/119/8 49/120/8 50/121/8 54/122/8
f 44/108/8 52/123/8 51/124/8 40/109/8
f 39/118/8 53/119/8 54/122/8 46/112/8
f 50/121/8 55/125/8 56/126/8 54/122/8
f 5/127/5 6/128/5 34/129/5 33/130/5
f 62/66/9 5/69/9 33/131/9 31/132/9
f 6/68/10 61/67/10 32/133/10 34/134/10
f 8/135/5 15/136/5 43/137/5 36/138/5
f 61/67/11 8/84/11 36/139/11 32/133/11
f 7/72/12 59/71/12 30/140/12 35/141/12
f 10/142/5 9/143/5 37/144/5 38/145/5
f 59/71/13 10/76/13 38/146/13 30/140/13
f 12/78/14 62/66/14 31/132/14 40/147/14
f 15/136/5 20/148/5 48/149/5 43/137/5
f 18/150/5 16/151/5 44/108/5 46/112/5
f 20/148/5 7/152/5 35/153/5 48/149/5
f 21/154/5 22/155/5 50/156/5 49/28/5
f 26/157/6 18/150/6 46/112/6 54/122/6
f 22/155/5 27/158/5 55/159/5 50/156/5
f 28/160/1 26/157/1 54/122/1 56/126/1
g room_Plane_battiscopa
usemtl battiscopa
f 14/161/8 19/162/8 80/163/8 76/164/8
f 13/165/7 3/166/7 78/167/7 79/168/7
f 3/169/4 4/170/4 77/171/4 78/172/4
f 74/173/5 73/174/5 65/175/5 66/176/5
f 75/177/5 74/178/5 66/179/5 67/180/5
f 77/181/5 76/182/5 68/183/5 69/184/5
f 78/172/5 77/171/5 69/185/5 70/186/5
f 79/168/5 78/167/5 70/187/5 71/188/5
f 76/164/5 80/163/5 72/189/5 68/190/5
f 73/191/5 79/192/5 71/193/5 65/194/5
f 80/195/5 75/196/5 67/197/5 72/198/5
f 17/199/7 13/200/7 79/192/7 73/191/7
f 19/201/8 2/202/8 75/196/8 80/195/8
f 1/203/7 17/204/7 73/174/7 74/173/7
f 2/205/6 1/206/6 74/178/6 75/177/6
f 4/207/8 14/208/8 76/182/8 77/181/8
o tetto_Plane.003
v -5.583470 8.781884 8.930866
v 5.402102 8.781884 8.930866
v -5.583470 8.781884 -8.930866
v 5.402102 8.781884 -8.930866
v -5.583470 8.576090 8.930866
v 5.402102 8.576090 8.930866
v -5.583470 8.576090 -8.930866
v 5.402102 8.576090 -8.930866
vt 0.000000 0.000000
vt 1.000000 0.000000
vt 1.000000 1.000000
vt 0.000000 1.000000
vt 0.000000 0.000000
vt 0.000000 1.000000
vt 1.000000 1.000000
vt 1.000000 0.000000
vn 0.0000 1.0000 0.0000
vn 0.0000 -1.0000 0.0000
vn -1.0000 0.0000 0.0000
vn 0.0000 0.0000 1.0000
vn 1.0000 0.0000 0.0000
vn 0.0000 0.0000 -1.0000
g tetto_Plane.003_Material.001
usemtl Material.001
s off
f 81/209/15 82/210/15 84/211/15 83/212/15
f 85/213/16 87/214/16 88/215/16 86/216/16
f 81/209/17 83/212/17 87/214/17 85/213/17
f 82/210/18 81/209/18 85/213/18 86/216/18
f 84/211/19 82/210/19 86/216/19 88/215/19
f 83/212/20 84/211/20 88/215/20 87/214/20
o foto_Plane.001
v -5.632732 5.463758 -2.189375
v -5.654117 2.346869 -2.189375
v -5.632732 5.463758 -7.495552
v -5.654117 2.346869 -7.495552
v -5.674072 5.464042 -2.189375
v -5.695457 2.347153 -2.189375
v -5.674072 5.464042 -7.495552
v -5.695457 2.347153 -7.495552
vt 0.999906 0.000094
vt 0.999906 0.888225
vt 0.000094 0.888225
vt 0.000094 0.000094
vt 0.999906 0.000094
vt 0.999906 0.888225
vt 0.000094 0.888225
vt 0.000094 0.000094
vt 0.000000 0.000000
vt 0.000000 1.000000
vt 0.000000 1.000000
vt 0.000000 0.000000
vt 1.000000 0.000000
vt 1.000000 0.000000
vt 1.000000 1.000000
vt 1.000000 1.000000
vn 1.0000 -0.0069 0.0000
vn -1.0000 0.0069 0.0000
vn 0.0069 1.0000 0.0000
vn 0.0000 0.0000 1.0000
vn -0.0069 -1.0000 0.0000
vn 0.0000 0.0000 -1.0000
g foto_Plane.001_foto
usemtl foto
s off
f 89/217/21 90/218/21 92/219/21 91/220/21
f 93/221/22 95/222/22 96/223/22 94/224/22
f 89/225/23 91/226/23 95/227/23 93/228/23
f 90/229/24 89/225/24 93/228/24 94/230/24
f 92/231/25 90/229/25 94/230/25 96/232/25
f 91/226/26 92/231/26 96/232/26 95/227/26
o vetro_Plane.004
v -5.394389 5.463758 -2.171460
v -5.415774 2.346869 -2.171460
v -5.394389 5.463758 -7.379264
v -5.415774 2.346869 -7.379264
v -5.435730 5.464042 -2.171460
v -5.457114 2.347153 -2.171460
v -5.435730 5.464042 -7.379264
v -5.457114 2.347153 -7.379264
vt 0.000000 0.000000
vt 0.000000 1.000000
vt 1.000000 1.000000
vt 1.000000 0.000000
vt 0.000000 0.000000
vt 0.000000 1.000000
vt 1.000000 0.000000
vt 1.000000 1.000000
vt 0.999906 0.000094
vt 0.999906 0.888225
vt 0.000094 0.888225
vt 0.000094 0.000094
vn -1.0000 0.0069 0.0000
vn 0.0069 1.0000 0.0000
vn 0.0000 0.0000 1.0000
vn -0.0069 -1.0000 0.0000
vn 0.0000 0.0000 -1.0000
vn 1.0000 -0.0069 0.0000
g vetro_Plane.004_Material
usemtl Material
s off
f 101/233/27 103/234/27 104/235/27 102/236/27
f 97/237/28 99/238/28 103/234/28 101/233/28
f 98/239/29 97/237/29 101/233/29 102/236/29
f 100/240/30 98/239/30 102/236/30 104/235/30
f 99/238/31 100/240/31 104/235/31 103/234/31
g vetro_Plane.004_vetro
usemtl vetro
f 97/241/32 98/242/32 100/243/32 99/244/32
