# Blender v3.1.2 OBJ File: 'pavimento.blend'
# www.blender.org
mtllib room.mtl
o Cube.002_Cube.003
v -5.618133 -0.071756 5.567816
v -5.618133 0.374106 5.567816
v -5.618133 -0.071756 -5.590349
v -5.618133 0.374106 -5.590349
v -5.319600 -0.071756 5.567816
v -5.319600 0.374106 5.567816
v -5.319600 -0.071756 -5.590349
v -5.319600 0.374106 -5.590349
v 5.338057 -0.071756 5.567816
v 5.338057 0.374106 5.567816
v 5.338057 -0.071756 -5.590349
v 5.338057 0.374106 -5.590349
v 5.636590 -0.071756 5.567816
v 5.636590 0.374106 5.567816
v 5.636590 -0.071756 -5.590349
v 5.636590 0.374106 -5.590349
vt 0.375000 0.000000
vt 0.625000 0.000000
vt 0.625000 0.250000
vt 0.375000 0.250000
vt 0.625000 0.500000
vt 0.375000 0.500000
vt 0.625000 0.750000
vt 0.375000 0.750000
vt 0.625000 1.000000
vt 0.375000 1.000000
vt 0.125000 0.500000
vt 0.125000 0.750000
vt 0.875000 0.500000
vt 0.875000 0.750000
vt 0.375000 0.000000
vt 0.625000 0.000000
vt 0.625000 0.250000
vt 0.375000 0.250000
vt 0.625000 0.500000
vt 0.375000 0.500000
vt 0.625000 0.750000
vt 0.375000 0.750000
vt 0.625000 1.000000
vt 0.375000 1.000000
vt 0.125000 0.500000
vt 0.125000 0.750000
vt 0.875000 0.500000
vt 0.875000 0.750000
vn -1.0000 0.0000 0.0000
vn 0.0000 0.0000 -1.0000
vn 1.0000 0.0000 0.0000
vn 0.0000 0.0000 1.0000
vn 0.0000 -1.0000 0.0000
vn 0.0000 1.0000 0.0000
g Cube.002_Cube.003_Material.005
usemtl Material.005
s off
f 1/1/1 2/2/1 4/3/1 3/4/1
f 3/4/2 4/3/2 8/5/2 7/6/2
f 7/6/3 8/5/3 6/7/3 5/8/3
f 5/8/4 6/7/4 2/9/4 1/10/4
f 3/11/5 7/6/5 5/8/5 1/12/5
f 8/5/6 4/13/6 2/14/6 6/7/6
f 9/15/1 10/16/1 12/17/1 11/18/1
f 11/18/2 12/17/2 16/19/2 15/20/2
f 15/20/3 16/19/3 14/21/3 13/22/3
f 13/22/4 14/21/4 10/23/4 9/24/4
f 11/25/5 15/20/5 13/22/5 9/26/5
f 16/19/6 12/27/6 10/28/6 14/21/6
o Cube.003_Cube.004
v 5.564949 -0.071756 5.592732
v 5.564949 0.374106 5.592732
v -5.593216 -0.071756 5.592733
v -5.593216 0.374106 5.592733
v 5.564949 -0.071756 5.294199
v 5.564949 0.374106 5.294199
v -5.593216 -0.071756 5.294199
v -5.593216 0.374106 5.294199
v 5.564949 -0.071756 -5.363457
v 5.564949 0.374106 -5.363457
v -5.593216 -0.071756 -5.363457
v -5.593216 0.374106 -5.363457
v 5.564949 -0.071756 -5.661991
v 5.564949 0.374106 -5.661991
v -5.593216 -0.071756 -5.661991
v -5.593216 0.374106 -5.661991
vt 0.375000 0.000000
vt 0.625000 0.000000
vt 0.625000 0.250000
vt 0.375000 0.250000
vt 0.625000 0.500000
vt 0.375000 0.500000
vt 0.625000 0.750000
vt 0.375000 0.750000
vt 0.625000 1.000000
vt 0.375000 1.000000
vt 0.125000 0.500000
vt 0.125000 0.750000
vt 0.875000 0.500000
vt 0.875000 0.750000
vt 0.375000 0.000000
vt 0.625000 0.000000
vt 0.625000 0.250000
vt 0.375000 0.250000
vt 0.625000 0.500000
vt 0.375000 0.500000
vt 0.625000 0.750000
vt 0.375000 0.750000
vt 0.625000 1.000000
vt 0.375000 1.000000
vt 0.125000 0.500000
vt 0.125000 0.750000
vt 0.875000 0.500000
vt 0.875000 0.750000
vn 0.0000 0.0000 1.0000
vn -1.0000 0.0000 0.0000
vn 0.0000 0.0000 -1.0000
vn 1.0000 0.0000 0.0000
vn 0.0000 -1.0000 0.0000
vn 0.0000 1.0000 0.0000
g Cube.003_Cube.004_Material.005
usemtl Material.005
s off
f 17/29/7 18/30/7 20/31/7 19/32/7
f 19/32/8 20/31/8 24/33/8 23/34/8
f 23/34/9 24/33/9 22/35/9 21/36/9
f 21/36/10 22/35/10 18/37/10 17/38/10
f 19/39/11 23/34/11 21/36/11 17/40/11
f 24/33/12 20/41/12 18/42/12 22/35/12
f 25/43/7 26/44/7 28/45/7 27/46/7
f 27/46/8 28/45/8 32/47/8 31/48/8
f 31/48/9 32/47/9 30/49/9 29/50/9
f 29/50/10 30/49/10 26/51/10 25/52/10
f 27/53/11 31/48/11 29/50/11 25/54/11
f 32/47/12 28/55/12 26/56/12 30/49/12
o Plane_Plane.001
v -5.598332 8.000000 -5.598332
v -5.598332 8.000000 5.598332
v 5.598332 8.000000 5.598332
v 5.598332 8.000000 -5.598332
v -5.598332 8.000000 5.598332
v 5.598332 8.000000 5.598332
v -5.598332 0.000000 -5.598332
v 5.598332 0.000000 -5.598332
v -5.598332 0.000000 -5.598332
v -5.598332 0.000000 5.598332
v 5.598332 0.000000 5.598332
v 5.598332 0.000000 -5.598332
v -5.598332 8.000000 -5.598332
v -5.598332 8.000000 5.598332
v 5.598332 8.000000 5.598332
v 5.598332 8.000000 -5.598332
v -5.598332 -0.167950 5.598332
v 5.598332 -0.167950 5.598332
v -5.598332 -0.167950 -5.598332
v 5.598332 -0.167950 -5.598332
v -5.547693 -0.151916 -5.547693
v -5.547693 -0.151916 5.547693
v 5.547693 -0.151916 5.547693
v 5.547693 -0.151916 -5.547693
v -5.479574 8.000000 -5.479574
v -5.430382 8.000000 5.598332
v 5.430382 8.000000 5.598332
v 5.479574 8.000000 -5.479574
v -5.598332 8.000000 5.430382
v 5.598332 8.000000 5.430382
v -5.479574 0.000000 -5.479574
v 5.479574 0.000000 -5.479574
v -5.598332 -0.167950 -5.598332
v -5.598332 -0.167950 5.598332
v 5.598332 -0.167950 5.598332
v 5.598332 -0.167950 -5.598332
v -5.598332 7.832051 -5.598332
v -5.598332 7.832051 5.598332
v 5.598332 7.832051 5.598332
v 5.598332 7.832051 -5.598332
vt 0.000000 0.000000
vt 1.000000 0.000000
vt 1.000000 1.000000
vt 0.000000 1.000000
vt 0.536191 0.010912
vt 0.535827 0.988777
vt 0.535648 0.989088
vt 0.536011 0.011223
vt 0.999900 0.000100
vt 0.999900 0.999900
vt 0.000100 0.999900
vt 0.000100 0.000100
vt 0.553379 0.997181
vt 0.518460 0.999868
vt 0.518460 0.002819
vt 0.553379 0.000132
vt 0.000079 0.333344
vt 0.244976 0.335390
vt 0.244976 0.664609
vt 0.000079 0.666656
vt 0.005649 0.000079
vt 0.250554 0.002647
vt 0.250554 0.997353
vt 0.005649 0.999921
vt 0.495625 0.334912
vt 0.250711 0.336433
vt 0.250711 0.000079
vt 0.495625 0.001600
vt 0.000000 0.000000
vt 0.000000 1.000000
vt 1.000000 1.000000
vt 1.000000 0.000000
vt 0.000000 0.000000
vt 0.000000 1.000000
vt 1.000000 1.000000
vt 1.000000 0.000000
vt 0.195649 0.702761
vt 0.086264 0.605502
vt 0.078945 0.626562
vt 0.197568 0.629599
vt 0.086235 0.374242
vt 0.195624 0.277080
vt 0.197542 0.350264
vt 0.078956 0.353177
vt 0.054403 0.560824
vt 0.054184 0.418750
vt 0.024414 0.429247
vt 0.024738 0.550351
vt 0.000000 0.000000
vt 0.000000 1.000000
vt 1.000000 0.000000
vt 1.000000 1.000000
vn 0.0000 1.0000 0.0000
vn 0.0000 -1.0000 0.0000
vn -0.3019 -0.9534 0.0000
vn 0.3019 -0.9534 0.0000
vn 0.0000 -0.9534 0.3019
vn 0.0000 -0.9534 -0.3019
vn 0.0000 -0.0084 1.0000
vn -0.9999 -0.0114 -0.0022
vn 0.9999 -0.0114 -0.0022
vn 0.0000 -0.0144 -0.9999
vn -1.0000 0.0000 0.0000
vn 0.0000 0.0000 1.0000
vn 1.0000 0.0000 0.0000
vn 0.0000 0.0000 -1.0000
g Plane_Plane.001_Material.003
usemtl Material.003
s off
f 46/57/13 47/58/13 48/59/13 45/60/13
f 49/61/13 50/62/13 52/63/13 51/64/13
f 54/65/14 53/66/14 56/67/14 55/68/14
f 50/62/15 55/69/15 56/70/15 52/63/15
f 51/64/16 53/71/16 54/72/16 49/61/16
f 52/63/17 56/70/17 53/71/17 51/64/17
f 49/61/18 54/72/18 55/69/18 50/62/18
f 56/73/19 60/74/19 57/75/19 53/76/19
f 55/77/20 59/78/20 60/74/20 56/73/20
f 53/76/21 57/75/21 58/79/21 54/80/21
f 54/81/22 61/82/22 62/83/22 55/84/22
f 66/85/14 65/86/14 68/87/14 67/88/14
f 70/89/14 69/90/14 72/91/14 71/92/14
f 33/93/13 34/94/13 58/95/13 57/96/13
f 35/97/13 36/98/13 60/99/13 59/100/13
f 36/98/13 33/93/13 57/96/13 60/99/13
f 37/101/13 38/102/13 62/103/13 61/104/13
f 42/105/23 41/106/23 65/86/23 66/85/23
f 43/107/24 42/105/24 66/85/24 67/88/24
f 44/108/25 43/107/25 67/88/25 68/87/25
f 41/106/26 44/108/26 68/87/26 65/86/26
f 46/57/23 45/60/23 69/90/23 70/89/23
f 47/58/24 46/57/24 70/89/24 71/92/24
f 48/59/25 47/58/25 71/92/25 72/91/25
f 45/60/26 48/59/26 72/91/26 69/90/26
l 40 39
l 64 63
o Plane.001_Plane.002
v -5.598332 0.000000 -5.598332
v -5.598332 0.000000 5.598332
v 5.598332 0.000000 5.598332
v 5.598332 0.000000 -5.598332
vt 0.000000 0.000000
vt 1.000000 0.000000
vt 1.000000 1.000000
vt 0.000000 1.000000
vn 0.0000 1.0000 0.0000
g Plane.001_Plane.002_Material.008
usemtl Material.008
s off
f 74/109/27 75/110/27 76/111/27 73/112/27
