# Blender v3.1.2 OBJ File: 'beach_umbrella.blend'
# www.blender.org
mtllib beach_umbrella.mtl
g Sphere
v 0.000000 0.923880 -0.382683
v 0.000000 0.707107 -0.707107
v 0.000000 0.555570 -0.831470
v 0.000000 0.382683 -0.923880
v 0.023666 0.996383 -0.040990
v 0.191342 0.923880 -0.331414
v 0.277785 0.831470 -0.481138
v 0.353553 0.707107 -0.612372
v 0.415735 0.555570 -0.720074
v 0.461940 0.382683 -0.800103
v 0.040990 0.996383 -0.023666
v 0.331414 0.923880 -0.191342
v 0.481138 0.831470 -0.277785
v 0.612372 0.707107 -0.353553
v 0.720074 0.555570 -0.415735
v 0.800103 0.382683 -0.461940
v 0.047332 0.996383 0.000000
v 0.382684 0.923880 0.000000
v 0.555570 0.831470 0.000000
v 0.707107 0.707107 0.000000
v 0.831470 0.555570 0.000000
v 0.923880 0.382683 0.000000
v 0.040990 0.996383 0.023666
v 0.331414 0.923880 0.191342
v 0.481138 0.831470 0.277785
v 0.612373 0.707107 0.353554
v 0.720074 0.555570 0.415735
v 0.800103 0.382683 0.461940
v 0.023666 0.996383 0.040990
v 0.191342 0.923880 0.331414
v 0.277785 0.831470 0.481138
v 0.353553 0.707107 0.612373
v 0.415735 0.555570 0.720074
v 0.461940 0.382683 0.800103
v -0.000000 0.996383 0.047332
v -0.000000 0.923880 0.382684
v -0.000000 0.831470 0.555570
v -0.000000 0.707107 0.707107
v -0.000000 0.555570 0.831470
v -0.000000 0.382683 0.923880
v -0.023666 0.996383 0.040990
v -0.191342 0.923880 0.331414
v -0.277785 0.831470 0.481138
v -0.353553 0.707107 0.612373
v -0.415735 0.555570 0.720074
v -0.461940 0.382683 0.800103
v -0.168953 0.980785 0.097545
v -0.331414 0.923880 0.191342
v -0.481138 0.831470 0.277785
v -0.612372 0.707107 0.353553
v -0.720074 0.555570 0.415735
v -0.800103 0.382683 0.461940
v -0.047332 0.996383 0.000000
v -0.382683 0.923880 0.000000
v -0.555570 0.831470 0.000000
v -0.707107 0.707107 0.000000
v -0.831470 0.555570 0.000000
v -0.923879 0.382683 -0.000000
v -0.040990 0.996383 -0.023666
v -0.331414 0.923880 -0.191342
v -0.481138 0.831470 -0.277785
v -0.612372 0.707107 -0.353553
v -0.720074 0.555570 -0.415735
v -0.800103 0.382683 -0.461940
v -0.023666 0.996383 -0.040990
v -0.191342 0.923880 -0.331414
v -0.277785 0.831470 -0.481138
v -0.353553 0.707107 -0.612372
v -0.415735 0.555570 -0.720074
v -0.461940 0.382683 -0.800103
v 0.000000 0.996383 -0.047332
v 0.000000 0.831470 -0.555570
v 0.168953 0.980785 -0.097545
v 0.097545 0.980785 -0.168953
v 0.195090 0.980785 0.000000
v 0.168953 0.980785 0.097545
v 0.097545 0.980785 0.168953
v -0.000000 0.980785 0.195091
v -0.097545 0.980785 0.168953
v -0.040990 0.996383 0.023666
v -0.195090 0.980785 0.000000
v -0.168953 0.980785 -0.097545
v -0.097545 0.980785 -0.168953
v -0.000000 0.980785 -0.195090
v 0.023666 1.010970 -0.040990
v 0.040990 1.010970 -0.023666
v 0.047332 1.010970 0.000000
v 0.040990 1.010970 0.023666
v 0.023666 1.010970 0.040990
v -0.000000 1.010970 0.047332
v -0.023666 1.010970 0.040990
v -0.000000 1.014587 0.000000
v -0.047332 1.010970 0.000000
v -0.040990 1.010970 -0.023666
v -0.023666 1.010970 -0.040990
v 0.000000 1.010970 -0.047332
v -0.040990 1.010970 0.023666
v -0.118695 -1.157297 -0.239902
v -0.101370 -1.157297 -0.222577
v -0.095029 -1.157297 -0.198911
v -0.101370 -1.157297 -0.175245
v -0.118695 -1.157297 -0.157921
v -0.142360 -1.157297 -0.151579
v -0.166026 -1.157297 -0.157921
v -0.189692 -1.157297 -0.198911
v -0.183351 -1.157297 -0.222577
v -0.166026 -1.157297 -0.239902
v -0.142360 -1.157297 -0.246243
v -0.183351 -1.157297 -0.175245
v -0.101370 -1.142710 -0.175245
v -0.142361 -1.139093 -0.198911
v 0.997637 1.791984 -0.189332
vt 0.750000 0.625000
vt 0.750000 0.687500
vt 0.666667 0.687500
vt 0.666667 0.625000
vt 0.750000 0.875000
vt 0.750000 0.937500
vt 0.666667 0.937500
vt 0.666667 0.875000
vt 0.750000 0.812500
vt 0.666667 0.812500
vt 0.750000 0.750000
vt 0.666667 0.750000
vt 0.583333 0.875000
vt 0.583333 0.937500
vt 0.500000 0.937500
vt 0.500000 0.875000
vt 0.583333 0.812500
vt 0.500000 0.812500
vt 0.583333 0.750000
vt 0.500000 0.750000
vt 0.583333 0.687500
vt 0.500000 0.687500
vt 0.583333 0.625000
vt 0.500000 0.625000
vt 0.416667 0.875000
vt 0.416667 0.937500
vt 0.333333 0.937500
vt 0.333333 0.875000
vt 0.416667 0.812500
vt 0.333333 0.812500
vt 0.416667 0.750000
vt 0.333333 0.750000
vt 0.416667 0.687500
vt 0.333333 0.687500
vt 0.416667 0.625000
vt 0.333333 0.625000
vt 0.250000 0.812500
vt 0.250000 0.875000
vt 0.166667 0.875000
vt 0.166667 0.812500
vt 0.250000 0.750000
vt 0.166667 0.750000
vt 0.250000 0.687500
vt 0.166667 0.687500
vt 0.250000 0.625000
vt 0.166667 0.625000
vt 0.250000 0.937500
vt 0.166667 0.937500
vt 0.083333 0.812500
vt 0.083333 0.875000
vt 0.000000 0.875000
vt 0.000000 0.812500
vt 0.083333 0.750000
vt 0.000000 0.750000
vt 0.083333 0.687500
vt 0.000000 0.687500
vt 0.083333 0.625000
vt 0.000000 0.625000
vt 0.083333 0.937500
vt 0.000000 0.937500
vt 0.916667 0.750000
vt 0.916667 0.812500
vt 0.833333 0.812500
vt 0.833333 0.750000
vt 0.916667 0.687500
vt 0.833333 0.687500
vt 0.916667 0.625000
vt 0.833333 0.625000
vt 0.916667 0.875000
vt 0.916667 0.937500
vt 0.833333 0.937500
vt 0.833333 0.875000
vt 0.551776 0.984872
vt 0.468442 0.984872
vt 0.385109 0.984872
vt 0.301776 0.984872
vt 0.218442 0.984872
vt 0.135109 0.984872
vt 0.051776 0.984872
vt 0.031558 0.984872
vt 0.885109 0.984872
vt 0.801776 0.984872
vt 0.718442 0.984872
vt 0.698224 0.984872
vt 0.458333 1.000000
vt 0.385109 0.984872
vt 0.385109 0.984872
vt 0.458333 1.000000
vt 0.385109 0.984872
vt 0.301776 0.984872
vt 0.135109 0.984872
vt 0.051776 0.984872
vt 0.885109 0.984872
vt 0.801776 0.984872
vt 0.468442 0.984872
vt 0.218442 0.984872
vt 0.968442 0.984872
vt 0.968442 0.984872
vt 0.551776 0.984872
vt 0.718442 0.984872
vt 0.698224 0.984872
vt 0.031558 0.984872
vt 1.000000 0.875000
vt 1.000000 0.937500
vt 1.000000 0.812500
vt 1.000000 0.750000
vt 1.000000 0.687500
vt 1.000000 0.625000
vt 0.708333 1.000000
vt 0.625000 1.000000
vt 0.541667 1.000000
vt 0.375000 1.000000
vt 0.291667 1.000000
vt 0.208333 1.000000
vt 0.125000 1.000000
vt 0.041667 1.000000
vt 0.958333 1.000000
vt 0.875000 1.000000
vt 0.791667 1.000000
vt 0.301776 0.984872
vt 0.718442 0.984872
vt 0.698224 0.984872
vt 0.218442 0.984872
vt 0.135109 0.984872
vt 0.051776 0.984872
vt 0.031558 0.984872
vt 0.551776 0.984872
vt 0.968442 0.984872
vt 0.885109 0.984872
vt 0.468442 0.984872
vt 0.801776 0.984872
vn -0.0000 0.4714 -0.8819
vn -0.0000 0.5482 -0.8363
vn 0.4182 0.5482 -0.7243
vn 0.4410 0.4714 -0.7638
vn -0.0000 0.9181 -0.3964
vn -0.0000 0.9769 -0.2136
vn 0.1068 0.9769 -0.1849
vn 0.1982 0.9181 -0.3433
vn 0.0000 0.8240 -0.5666
vn 0.2833 0.8240 -0.4907
vn -0.0000 0.6991 -0.7150
vn 0.3575 0.6991 -0.6192
vn 0.3433 0.9181 -0.1982
vn 0.1849 0.9769 -0.1068
vn 0.2136 0.9769 0.0000
vn 0.3964 0.9181 0.0000
vn 0.4907 0.8240 -0.2833
vn 0.5666 0.8240 0.0000
vn 0.6192 0.6991 -0.3575
vn 0.7150 0.6991 0.0000
vn 0.7243 0.5482 -0.4182
vn 0.8363 0.5482 -0.0000
vn 0.7638 0.4714 -0.4410
vn 0.8819 0.4714 0.0000
vn 0.3433 0.9181 0.1982
vn 0.1849 0.9769 0.1068
vn 0.1068 0.9769 0.1849
vn 0.1982 0.9181 0.3433
vn 0.4907 0.8240 0.2833
vn 0.2833 0.8240 0.4907
vn 0.6192 0.6991 0.3575
vn 0.3575 0.6991 0.6192
vn 0.7243 0.5482 0.4182
vn 0.4182 0.5482 0.7243
vn 0.7638 0.4714 0.4410
vn 0.4410 0.4714 0.7638
vn 0.0000 0.8240 0.5666
vn 0.0000 0.9181 0.3964
vn -0.1982 0.9181 0.3433
vn -0.2833 0.8240 0.4907
vn -0.0000 0.6991 0.7150
vn -0.3575 0.6991 0.6192
vn -0.0000 0.5482 0.8363
vn -0.4182 0.5482 0.7243
vn -0.0000 0.4714 0.8819
vn -0.4410 0.4714 0.7638
vn 0.0000 0.9769 0.2136
vn -0.1068 0.9769 0.1849
vn -0.4907 0.8240 0.2833
vn -0.3433 0.9181 0.1982
vn -0.3964 0.9181 -0.0000
vn -0.5666 0.8240 -0.0000
vn -0.6192 0.6991 0.3575
vn -0.7150 0.6991 -0.0000
vn -0.7243 0.5482 0.4182
vn -0.8363 0.5482 -0.0000
vn -0.7638 0.4714 0.4410
vn -0.8819 0.4714 -0.0000
vn -0.1849 0.9769 0.1068
vn -0.2136 0.9769 0.0000
vn -0.6192 0.6991 -0.3575
vn -0.4907 0.8240 -0.2833
vn -0.2833 0.8240 -0.4907
vn -0.3575 0.6991 -0.6192
vn -0.7243 0.5482 -0.4182
vn -0.4182 0.5482 -0.7243
vn -0.7638 0.4714 -0.4410
vn -0.4410 0.4714 -0.7638
vn -0.3433 0.9181 -0.1982
vn -0.1849 0.9769 -0.1068
vn -0.1068 0.9769 -0.1849
vn -0.1982 0.9181 -0.3433
vn 0.0840 0.9943 -0.0660
vn 0.1098 0.9939 -0.0115
vn -0.4233 0.8108 0.4043
vn 0.0561 0.9934 0.0998
vn -0.0080 0.9936 0.1123
vn -0.0656 0.9940 0.0871
vn -0.0984 0.9944 0.0388
vn -0.1035 0.9945 -0.0136
vn -0.0866 0.9945 -0.0584
vn -0.0538 0.9945 -0.0897
vn -0.0101 0.9945 -0.1038
vn 0.0389 0.9945 -0.0972
vn 0.1232 0.9696 -0.2116
vn 0.7898 0.6082 0.0793
vn -0.9734 0.0436 0.2248
vn 0.5025 0.0465 -0.8633
vn -0.8812 0.1009 -0.4619
vn 0.3890 0.6282 0.6738
vn -0.3890 0.6282 0.6738
vn -0.6738 0.6282 0.3890
vn -0.6738 0.6282 -0.3890
vn -0.3890 0.6282 -0.6738
vn 0.7780 0.6282 0.0000
vn 0.0000 0.6282 0.7780
vn -0.7780 0.6282 -0.0000
vn 0.6738 0.6282 -0.3890
vn -0.0000 0.6282 -0.7780
vn 0.3890 0.6282 -0.6738
vn -0.4952 0.1123 -0.8615
vn 0.0105 -0.0927 0.9956
vn -0.4848 -0.0486 0.8733
vn 0.0110 0.0912 -0.9958
vn 0.5143 0.0451 -0.8564
vn 0.8750 -0.0132 -0.4839
vn 0.9976 -0.0673 0.0149
vn -0.8565 0.0090 0.5160
vn 0.8576 -0.1032 0.5038
vn -0.9978 0.0645 0.0154
vn 0.4984 -0.1123 0.8597
usemtl Material.001
s 1
f 4/1/1 3/2/2 9/3/3 10/4/4
f 1/5/5 84/6/6 74/7/7 6/8/8
f 72/9/9 1/5/5 6/8/8 7/10/10
f 2/11/11 72/9/9 7/10/10 8/12/12
f 3/2/2 2/11/11 8/12/12 9/3/3
f 12/13/13 73/14/14 75/15/15 18/16/16
f 13/17/17 12/13/13 18/16/16 19/18/18
f 14/19/19 13/17/17 19/18/18 20/20/20
f 15/21/21 14/19/19 20/20/20 21/22/22
f 16/23/23 15/21/21 21/22/22 22/24/24
f 24/25/25 76/26/26 77/27/27 30/28/28
f 25/29/29 24/25/25 30/28/28 31/30/30
f 26/31/31 25/29/29 31/30/30 32/32/32
f 27/33/33 26/31/31 32/32/32 33/34/34
f 28/35/35 27/33/33 33/34/34 34/36/36
f 37/37/37 36/38/38 42/39/39 43/40/40
f 38/41/41 37/37/37 43/40/40 44/42/42
f 39/43/43 38/41/41 44/42/42 45/44/44
f 40/45/45 39/43/43 45/44/44 46/46/46
f 36/38/38 78/47/47 79/48/48 42/39/39
f 49/49/49 48/50/50 54/51/51 55/52/52
f 50/53/53 49/49/49 55/52/52 56/54/54
f 51/55/55 50/53/53 56/54/54 57/56/56
f 52/57/57 51/55/55 57/56/56 58/58/58
f 48/50/50 47/59/59 81/60/60 54/51/51
f 62/61/61 61/62/62 67/63/63 68/64/64
f 63/65/65 62/61/61 68/64/64 69/66/66
f 64/67/67 63/65/65 69/66/66 70/68/68
f 60/69/69 82/70/70 83/71/71 66/72/72
f 61/62/62 60/69/69 66/72/72 67/63/63
f 11/73/73 17/74/74 75/15/15 73/14/14
f 23/75/75 29/76/76 77/27/27 76/26/26
f 35/77/77 41/78/78 79/48/48 78/47/47
f 80/79/79 53/80/80 81/60/60 47/59/59
f 59/81/81 65/82/82 83/71/71 82/70/70
f 71/83/83 5/84/84 74/7/7 84/6/6
f 92/85/85 88/86/86 110/87/87 111/88/88
f 23/75/75 88/86/86 110/87/87 101/89/89
usemtl Material.002
f 29/76/76 23/75/75 88/86/86 89/90/90
f 9/3/3 8/12/12 14/19/19 15/21/21
f 10/4/4 9/3/3 15/21/21 16/23/23
f 80/79/79 41/78/78 91/91/91 97/92/92
f 6/8/8 74/7/7 73/14/14 12/13/13
f 7/10/10 6/8/8 12/13/13 13/17/17
f 8/12/12 7/10/10 13/17/17 14/19/19
f 65/82/82 59/81/81 94/93/93 95/94/94
f 22/24/24 21/22/22 27/33/33 28/35/35
f 23/75/75 17/74/74 87/95/95 88/86/86
f 18/16/16 75/15/15 76/26/26 24/25/25
f 19/18/18 18/16/16 24/25/25 25/29/29
f 20/20/20 19/18/18 25/29/29 26/31/31
f 21/22/22 20/20/20 26/31/31 27/33/33
f 41/78/78 35/77/77 90/96/96 91/91/91
f 34/36/36 33/34/34 39/43/43 40/45/45
f 59/81/81 53/97/80 93/98/97 94/93/93
f 30/28/28 77/27/27 78/47/47 36/38/38
f 31/30/30 30/28/28 36/38/38 37/37/37
f 32/32/32 31/30/30 37/37/37 38/41/41
f 33/34/34 32/32/32 38/41/41 39/43/43
f 17/74/74 11/73/73 86/99/98 87/95/95
f 5/84/84 71/83/83 96/100/99 85/101/100
f 42/39/39 79/48/48 47/59/59 48/50/50
f 43/40/40 42/39/39 48/50/50 49/49/49
f 44/42/42 43/40/40 49/49/49 50/53/53
f 45/44/44 44/42/42 50/53/53 51/55/55
f 46/46/46 45/44/44 51/55/55 52/57/57
f 35/77/77 29/76/76 89/90/90 90/96/96
f 53/80/80 80/79/79 97/92/92 93/102/97
f 54/103/51 81/104/60 82/70/70 60/69/69
f 55/105/52 54/103/51 60/69/69 61/62/62
f 56/106/54 55/105/52 61/62/62 62/61/61
f 57/107/56 56/106/54 62/61/61 63/65/65
f 58/108/58 57/107/56 63/65/65 64/67/67
f 11/73/73 5/84/84 85/101/100 86/99/98
f 71/83/83 65/82/82 95/94/94 96/100/99
f 66/72/72 83/71/71 84/6/6 1/5/5
f 67/63/63 66/72/72 1/5/5 72/9/9
f 68/64/64 67/63/63 72/9/9 2/11/11
f 69/66/66 68/64/64 2/11/11 3/2/2
f 70/68/68 69/66/66 3/2/2 4/1/1
f 5/84/84 11/73/73 73/14/14 74/7/7
f 17/74/74 23/75/75 76/26/26 75/15/15
f 29/76/76 35/77/77 78/47/47 77/27/27
f 41/78/78 80/79/79 47/59/59 79/48/48
f 53/97/80 59/81/81 82/70/70 81/104/60
f 65/82/82 71/83/83 84/6/6 83/71/71
f 96/100/99 92/109/85 85/101/100
f 85/101/100 92/110/85 86/99/98
f 86/99/98 92/111/85 87/95/95
f 87/95/95 92/85/85 88/86/86
f 88/86/86 92/112/85 89/90/90
f 89/90/90 92/113/85 90/96/96
f 90/96/96 92/114/85 91/91/91
f 91/91/91 92/115/85 97/92/92
f 97/92/92 92/116/85 93/102/97
f 93/98/97 92/117/85 94/93/93
f 94/93/93 92/118/85 95/94/94
f 95/94/94 92/119/85 96/100/99
f 29/76/76 23/75/75 101/89/89 102/120/101
f 5/84/84 71/83/83 108/121/102 98/122/103
f 35/77/77 29/76/76 102/120/101 103/123/104
f 41/78/78 35/77/77 103/123/104 104/124/105
f 80/79/79 41/78/78 104/124/105 109/125/106
f 53/80/80 80/79/79 109/125/106 105/126/107
f 11/73/73 5/84/84 98/122/103 99/127/108
f 59/81/81 53/97/80 105/128/107 106/129/109
f 17/74/74 11/73/73 99/127/108 100/130/110
f 65/82/82 59/81/81 106/129/109 107/131/111
f 23/75/75 17/74/74 100/130/110 101/89/89
f 71/83/83 65/82/82 107/131/111 108/121/102
